M48
; DRILL file {KiCad 6.0.2+dfsg-1} date vr 01 sep 2023 16:32:18
; FORMAT={-:-/ absolute / metric / decimal}
; #@! TF.CreationDate,2023-09-01T16:32:18+02:00
; #@! TF.GenerationSoftware,Kicad,Pcbnew,6.0.2+dfsg-1
; #@! TF.FileFunction,Plated,1,2,PTH
FMAT,2
METRIC
; #@! TA.AperFunction,Plated,PTH,ComponentDrill
T1C0.750
; #@! TA.AperFunction,Plated,PTH,ComponentDrill
T2C0.800
; #@! TA.AperFunction,Plated,PTH,ComponentDrill
T3C1.000
; #@! TA.AperFunction,Plated,PTH,ComponentDrill
T4C1.100
; #@! TA.AperFunction,Plated,PTH,ComponentDrill
T5C1.320
%
G90
G05
T1
X111.945Y-112.54
X111.945Y-113.81
X111.945Y-115.08
T2
X91.75Y-94.0
X91.75Y-99.0
X95.75Y-93.75
X95.75Y-103.91
X96.0Y-60.47
X96.0Y-63.01
X96.0Y-65.55
X100.0Y-93.67
X100.0Y-103.83
X102.0Y-60.5
X102.0Y-65.5
X104.0Y-109.67
X104.0Y-119.83
X109.5Y-123.5
X109.5Y-128.5
X118.945Y-109.46
X118.945Y-119.62
X129.75Y-90.42
X129.75Y-100.58
X131.75Y-109.46
X131.75Y-119.62
X132.67Y-54.75
X136.25Y-58.75
X141.25Y-58.75
X142.83Y-54.75
X147.75Y-55.085
X147.75Y-65.245
T3
X108.37Y-59.49
X108.37Y-62.03
X108.37Y-64.57
X108.37Y-67.11
X108.37Y-69.65
X108.37Y-72.19
X108.37Y-74.73
X108.37Y-77.27
X108.37Y-79.81
X108.37Y-82.35
X108.37Y-84.89
X108.37Y-87.43
X108.37Y-89.97
X108.37Y-92.51
X108.37Y-95.05
X123.61Y-59.49
X123.61Y-62.03
X123.61Y-64.57
X123.61Y-67.11
X123.61Y-69.65
X123.61Y-72.19
X123.61Y-74.73
X123.61Y-77.27
X123.61Y-79.81
X123.61Y-82.35
X123.61Y-84.89
X123.61Y-87.43
X123.61Y-89.97
X123.61Y-92.51
X123.61Y-95.05
X139.25Y-85.375
X139.25Y-115.625
X146.75Y-85.375
X146.75Y-115.375
T4
X124.0Y-112.0
X124.0Y-114.54
X124.0Y-117.08
X137.0Y-63.25
X137.0Y-69.75
X141.5Y-63.25
X141.5Y-69.75
T5
X93.0Y-72.0
X93.0Y-77.0
X93.0Y-82.0
X93.0Y-87.0
X93.0Y-114.0
X93.0Y-119.0
X119.945Y-128.54
X124.945Y-128.54
X140.0Y-128.5
X145.0Y-128.5
T0
M30
