G04 #@! TF.GenerationSoftware,KiCad,Pcbnew,6.0.2+dfsg-1*
G04 #@! TF.CreationDate,2023-09-01T16:31:58+02:00*
G04 #@! TF.ProjectId,WLS5,574c5335-2e6b-4696-9361-645f70636258,rev?*
G04 #@! TF.SameCoordinates,Original*
G04 #@! TF.FileFunction,Legend,Top*
G04 #@! TF.FilePolarity,Positive*
%FSLAX46Y46*%
G04 Gerber Fmt 4.6, Leading zero omitted, Abs format (unit mm)*
G04 Created by KiCad (PCBNEW 6.0.2+dfsg-1) date 2023-09-01 16:31:58*
%MOMM*%
%LPD*%
G01*
G04 APERTURE LIST*
%ADD10C,0.150000*%
%ADD11C,0.250000*%
%ADD12C,0.120000*%
%ADD13C,1.600000*%
%ADD14O,1.600000X1.600000*%
%ADD15R,3.960000X1.980000*%
%ADD16O,3.960000X1.980000*%
%ADD17C,2.000000*%
%ADD18R,1.500000X1.050000*%
%ADD19O,1.500000X1.050000*%
%ADD20R,2.000000X2.000000*%
%ADD21R,1.600000X1.600000*%
%ADD22C,3.200000*%
%ADD23R,1.980000X3.960000*%
%ADD24O,1.980000X3.960000*%
%ADD25C,1.440000*%
%ADD26R,2.000000X1.905000*%
%ADD27O,2.000000X1.905000*%
G04 APERTURE END LIST*
D10*
X135500000Y-119000000D02*
X151250000Y-119000000D01*
X151250000Y-119000000D02*
X151250000Y-81750000D01*
X151250000Y-81750000D02*
X135500000Y-81750000D01*
X135500000Y-81750000D02*
X135500000Y-119000000D01*
X85976190Y-61802142D02*
X85928571Y-61849761D01*
X85785714Y-61897380D01*
X85690476Y-61897380D01*
X85547619Y-61849761D01*
X85452380Y-61754523D01*
X85404761Y-61659285D01*
X85357142Y-61468809D01*
X85357142Y-61325952D01*
X85404761Y-61135476D01*
X85452380Y-61040238D01*
X85547619Y-60945000D01*
X85690476Y-60897380D01*
X85785714Y-60897380D01*
X85928571Y-60945000D01*
X85976190Y-60992619D01*
X86357142Y-61611666D02*
X86833333Y-61611666D01*
X86261904Y-61897380D02*
X86595238Y-60897380D01*
X86928571Y-61897380D01*
X87738095Y-61897380D02*
X87261904Y-61897380D01*
X87261904Y-60897380D01*
X88071428Y-61897380D02*
X88071428Y-60897380D01*
X88880952Y-61373571D02*
X89023809Y-61421190D01*
X89071428Y-61468809D01*
X89119047Y-61564047D01*
X89119047Y-61706904D01*
X89071428Y-61802142D01*
X89023809Y-61849761D01*
X88928571Y-61897380D01*
X88547619Y-61897380D01*
X88547619Y-60897380D01*
X88880952Y-60897380D01*
X88976190Y-60945000D01*
X89023809Y-60992619D01*
X89071428Y-61087857D01*
X89071428Y-61183095D01*
X89023809Y-61278333D01*
X88976190Y-61325952D01*
X88880952Y-61373571D01*
X88547619Y-61373571D01*
X90119047Y-61897380D02*
X89785714Y-61421190D01*
X89547619Y-61897380D02*
X89547619Y-60897380D01*
X89928571Y-60897380D01*
X90023809Y-60945000D01*
X90071428Y-60992619D01*
X90119047Y-61087857D01*
X90119047Y-61230714D01*
X90071428Y-61325952D01*
X90023809Y-61373571D01*
X89928571Y-61421190D01*
X89547619Y-61421190D01*
X90500000Y-61611666D02*
X90976190Y-61611666D01*
X90404761Y-61897380D02*
X90738095Y-60897380D01*
X91071428Y-61897380D01*
X91261904Y-60897380D02*
X91833333Y-60897380D01*
X91547619Y-61897380D02*
X91547619Y-60897380D01*
X92166666Y-61373571D02*
X92500000Y-61373571D01*
X92642857Y-61897380D02*
X92166666Y-61897380D01*
X92166666Y-60897380D01*
X92642857Y-60897380D01*
X87761904Y-63507380D02*
X87761904Y-62507380D01*
X88095238Y-63221666D01*
X88428571Y-62507380D01*
X88428571Y-63507380D01*
X88857142Y-63221666D02*
X89333333Y-63221666D01*
X88761904Y-63507380D02*
X89095238Y-62507380D01*
X89428571Y-63507380D01*
X89666666Y-62507380D02*
X90333333Y-63507380D01*
X90333333Y-62507380D02*
X89666666Y-63507380D01*
X85750000Y-85988095D02*
X85797619Y-85892857D01*
X85797619Y-85750000D01*
X85750000Y-85607142D01*
X85654761Y-85511904D01*
X85559523Y-85464285D01*
X85369047Y-85416666D01*
X85226190Y-85416666D01*
X85035714Y-85464285D01*
X84940476Y-85511904D01*
X84845238Y-85607142D01*
X84797619Y-85750000D01*
X84797619Y-85845238D01*
X84845238Y-85988095D01*
X84892857Y-86035714D01*
X85226190Y-86035714D01*
X85226190Y-85845238D01*
X84797619Y-86464285D02*
X85797619Y-86464285D01*
X84797619Y-87035714D01*
X85797619Y-87035714D01*
X84797619Y-87511904D02*
X85797619Y-87511904D01*
X85797619Y-87750000D01*
X85750000Y-87892857D01*
X85654761Y-87988095D01*
X85559523Y-88035714D01*
X85369047Y-88083333D01*
X85226190Y-88083333D01*
X85035714Y-88035714D01*
X84940476Y-87988095D01*
X84845238Y-87892857D01*
X84797619Y-87750000D01*
X84797619Y-87511904D01*
X124011904Y-135928571D02*
X124154761Y-135976190D01*
X124202380Y-136023809D01*
X124250000Y-136119047D01*
X124250000Y-136261904D01*
X124202380Y-136357142D01*
X124154761Y-136404761D01*
X124059523Y-136452380D01*
X123678571Y-136452380D01*
X123678571Y-135452380D01*
X124011904Y-135452380D01*
X124107142Y-135500000D01*
X124154761Y-135547619D01*
X124202380Y-135642857D01*
X124202380Y-135738095D01*
X124154761Y-135833333D01*
X124107142Y-135880952D01*
X124011904Y-135928571D01*
X123678571Y-135928571D01*
X124630952Y-136166666D02*
X125107142Y-136166666D01*
X124535714Y-136452380D02*
X124869047Y-135452380D01*
X125202380Y-136452380D01*
X125392857Y-135452380D02*
X125964285Y-135452380D01*
X125678571Y-136452380D02*
X125678571Y-135452380D01*
X126154761Y-135452380D02*
X126726190Y-135452380D01*
X126440476Y-136452380D02*
X126440476Y-135452380D01*
X127059523Y-136071428D02*
X127821428Y-136071428D01*
X127440476Y-136452380D02*
X127440476Y-135690476D01*
X117511904Y-135928571D02*
X117654761Y-135976190D01*
X117702380Y-136023809D01*
X117750000Y-136119047D01*
X117750000Y-136261904D01*
X117702380Y-136357142D01*
X117654761Y-136404761D01*
X117559523Y-136452380D01*
X117178571Y-136452380D01*
X117178571Y-135452380D01*
X117511904Y-135452380D01*
X117607142Y-135500000D01*
X117654761Y-135547619D01*
X117702380Y-135642857D01*
X117702380Y-135738095D01*
X117654761Y-135833333D01*
X117607142Y-135880952D01*
X117511904Y-135928571D01*
X117178571Y-135928571D01*
X118130952Y-136166666D02*
X118607142Y-136166666D01*
X118035714Y-136452380D02*
X118369047Y-135452380D01*
X118702380Y-136452380D01*
X118892857Y-135452380D02*
X119464285Y-135452380D01*
X119178571Y-136452380D02*
X119178571Y-135452380D01*
X119654761Y-135452380D02*
X120226190Y-135452380D01*
X119940476Y-136452380D02*
X119940476Y-135452380D01*
X120559523Y-136071428D02*
X121321428Y-136071428D01*
X137377857Y-136404761D02*
X137520714Y-136452380D01*
X137758809Y-136452380D01*
X137854047Y-136404761D01*
X137901666Y-136357142D01*
X137949285Y-136261904D01*
X137949285Y-136166666D01*
X137901666Y-136071428D01*
X137854047Y-136023809D01*
X137758809Y-135976190D01*
X137568333Y-135928571D01*
X137473095Y-135880952D01*
X137425476Y-135833333D01*
X137377857Y-135738095D01*
X137377857Y-135642857D01*
X137425476Y-135547619D01*
X137473095Y-135500000D01*
X137568333Y-135452380D01*
X137806428Y-135452380D01*
X137949285Y-135500000D01*
X138377857Y-135928571D02*
X138711190Y-135928571D01*
X138854047Y-136452380D02*
X138377857Y-136452380D01*
X138377857Y-135452380D01*
X138854047Y-135452380D01*
X139282619Y-136452380D02*
X139282619Y-135452380D01*
X139854047Y-136452380D01*
X139854047Y-135452380D01*
X140282619Y-136404761D02*
X140425476Y-136452380D01*
X140663571Y-136452380D01*
X140758809Y-136404761D01*
X140806428Y-136357142D01*
X140854047Y-136261904D01*
X140854047Y-136166666D01*
X140806428Y-136071428D01*
X140758809Y-136023809D01*
X140663571Y-135976190D01*
X140473095Y-135928571D01*
X140377857Y-135880952D01*
X140330238Y-135833333D01*
X140282619Y-135738095D01*
X140282619Y-135642857D01*
X140330238Y-135547619D01*
X140377857Y-135500000D01*
X140473095Y-135452380D01*
X140711190Y-135452380D01*
X140854047Y-135500000D01*
X141282619Y-136071428D02*
X142044523Y-136071428D01*
X141663571Y-136452380D02*
X141663571Y-135690476D01*
X143877857Y-136404761D02*
X144020714Y-136452380D01*
X144258809Y-136452380D01*
X144354047Y-136404761D01*
X144401666Y-136357142D01*
X144449285Y-136261904D01*
X144449285Y-136166666D01*
X144401666Y-136071428D01*
X144354047Y-136023809D01*
X144258809Y-135976190D01*
X144068333Y-135928571D01*
X143973095Y-135880952D01*
X143925476Y-135833333D01*
X143877857Y-135738095D01*
X143877857Y-135642857D01*
X143925476Y-135547619D01*
X143973095Y-135500000D01*
X144068333Y-135452380D01*
X144306428Y-135452380D01*
X144449285Y-135500000D01*
X144877857Y-135928571D02*
X145211190Y-135928571D01*
X145354047Y-136452380D02*
X144877857Y-136452380D01*
X144877857Y-135452380D01*
X145354047Y-135452380D01*
X145782619Y-136452380D02*
X145782619Y-135452380D01*
X146354047Y-136452380D01*
X146354047Y-135452380D01*
X146782619Y-136404761D02*
X146925476Y-136452380D01*
X147163571Y-136452380D01*
X147258809Y-136404761D01*
X147306428Y-136357142D01*
X147354047Y-136261904D01*
X147354047Y-136166666D01*
X147306428Y-136071428D01*
X147258809Y-136023809D01*
X147163571Y-135976190D01*
X146973095Y-135928571D01*
X146877857Y-135880952D01*
X146830238Y-135833333D01*
X146782619Y-135738095D01*
X146782619Y-135642857D01*
X146830238Y-135547619D01*
X146877857Y-135500000D01*
X146973095Y-135452380D01*
X147211190Y-135452380D01*
X147354047Y-135500000D01*
X147782619Y-136071428D02*
X148544523Y-136071428D01*
X101952380Y-83309523D02*
X101952380Y-83119047D01*
X102000000Y-83023809D01*
X102095238Y-82928571D01*
X102285714Y-82880952D01*
X102619047Y-82880952D01*
X102809523Y-82928571D01*
X102904761Y-83023809D01*
X102952380Y-83119047D01*
X102952380Y-83309523D01*
X102904761Y-83404761D01*
X102809523Y-83500000D01*
X102619047Y-83547619D01*
X102285714Y-83547619D01*
X102095238Y-83500000D01*
X102000000Y-83404761D01*
X101952380Y-83309523D01*
X102952380Y-81976190D02*
X102952380Y-82452380D01*
X101952380Y-82452380D01*
X102428571Y-81642857D02*
X102428571Y-81309523D01*
X102952380Y-81166666D02*
X102952380Y-81642857D01*
X101952380Y-81642857D01*
X101952380Y-81166666D01*
X102952380Y-80738095D02*
X101952380Y-80738095D01*
X101952380Y-80500000D01*
X102000000Y-80357142D01*
X102095238Y-80261904D01*
X102190476Y-80214285D01*
X102380952Y-80166666D01*
X102523809Y-80166666D01*
X102714285Y-80214285D01*
X102809523Y-80261904D01*
X102904761Y-80357142D01*
X102952380Y-80500000D01*
X102952380Y-80738095D01*
X102952380Y-78976190D02*
X101952380Y-78976190D01*
X101952380Y-78738095D01*
X102000000Y-78595238D01*
X102095238Y-78500000D01*
X102190476Y-78452380D01*
X102380952Y-78404761D01*
X102523809Y-78404761D01*
X102714285Y-78452380D01*
X102809523Y-78500000D01*
X102904761Y-78595238D01*
X102952380Y-78738095D01*
X102952380Y-78976190D01*
X102952380Y-77976190D02*
X101952380Y-77976190D01*
X102904761Y-77547619D02*
X102952380Y-77404761D01*
X102952380Y-77166666D01*
X102904761Y-77071428D01*
X102857142Y-77023809D01*
X102761904Y-76976190D01*
X102666666Y-76976190D01*
X102571428Y-77023809D01*
X102523809Y-77071428D01*
X102476190Y-77166666D01*
X102428571Y-77357142D01*
X102380952Y-77452380D01*
X102333333Y-77500000D01*
X102238095Y-77547619D01*
X102142857Y-77547619D01*
X102047619Y-77500000D01*
X102000000Y-77452380D01*
X101952380Y-77357142D01*
X101952380Y-77119047D01*
X102000000Y-76976190D01*
X102952380Y-76547619D02*
X101952380Y-76547619D01*
X101952380Y-76166666D01*
X102000000Y-76071428D01*
X102047619Y-76023809D01*
X102142857Y-75976190D01*
X102285714Y-75976190D01*
X102380952Y-76023809D01*
X102428571Y-76071428D01*
X102476190Y-76166666D01*
X102476190Y-76547619D01*
X102952380Y-75071428D02*
X102952380Y-75547619D01*
X101952380Y-75547619D01*
X102666666Y-74785714D02*
X102666666Y-74309523D01*
X102952380Y-74880952D02*
X101952380Y-74547619D01*
X102952380Y-74214285D01*
X102476190Y-73690476D02*
X102952380Y-73690476D01*
X101952380Y-74023809D02*
X102476190Y-73690476D01*
X101952380Y-73357142D01*
X137952380Y-98827380D02*
X137952380Y-99636904D01*
X138000000Y-99732142D01*
X138047619Y-99779761D01*
X138142857Y-99827380D01*
X138333333Y-99827380D01*
X138428571Y-99779761D01*
X138476190Y-99732142D01*
X138523809Y-99636904D01*
X138523809Y-98827380D01*
X139000000Y-99827380D02*
X139000000Y-98827380D01*
X139380952Y-98827380D01*
X139476190Y-98875000D01*
X139523809Y-98922619D01*
X139571428Y-99017857D01*
X139571428Y-99160714D01*
X139523809Y-99255952D01*
X139476190Y-99303571D01*
X139380952Y-99351190D01*
X139000000Y-99351190D01*
X140571428Y-99732142D02*
X140523809Y-99779761D01*
X140380952Y-99827380D01*
X140285714Y-99827380D01*
X140142857Y-99779761D01*
X140047619Y-99684523D01*
X140000000Y-99589285D01*
X139952380Y-99398809D01*
X139952380Y-99255952D01*
X140000000Y-99065476D01*
X140047619Y-98970238D01*
X140142857Y-98875000D01*
X140285714Y-98827380D01*
X140380952Y-98827380D01*
X140523809Y-98875000D01*
X140571428Y-98922619D01*
X141190476Y-98827380D02*
X141380952Y-98827380D01*
X141476190Y-98875000D01*
X141571428Y-98970238D01*
X141619047Y-99160714D01*
X141619047Y-99494047D01*
X141571428Y-99684523D01*
X141476190Y-99779761D01*
X141380952Y-99827380D01*
X141190476Y-99827380D01*
X141095238Y-99779761D01*
X141000000Y-99684523D01*
X140952380Y-99494047D01*
X140952380Y-99160714D01*
X141000000Y-98970238D01*
X141095238Y-98875000D01*
X141190476Y-98827380D01*
X142047619Y-99827380D02*
X142047619Y-98827380D01*
X142619047Y-99827380D01*
X142619047Y-98827380D01*
X142952380Y-98827380D02*
X143285714Y-99827380D01*
X143619047Y-98827380D01*
X143952380Y-99303571D02*
X144285714Y-99303571D01*
X144428571Y-99827380D02*
X143952380Y-99827380D01*
X143952380Y-98827380D01*
X144428571Y-98827380D01*
X145428571Y-99827380D02*
X145095238Y-99351190D01*
X144857142Y-99827380D02*
X144857142Y-98827380D01*
X145238095Y-98827380D01*
X145333333Y-98875000D01*
X145380952Y-98922619D01*
X145428571Y-99017857D01*
X145428571Y-99160714D01*
X145380952Y-99255952D01*
X145333333Y-99303571D01*
X145238095Y-99351190D01*
X144857142Y-99351190D01*
X145714285Y-98827380D02*
X146285714Y-98827380D01*
X146000000Y-99827380D02*
X146000000Y-98827380D01*
X146619047Y-99303571D02*
X146952380Y-99303571D01*
X147095238Y-99827380D02*
X146619047Y-99827380D01*
X146619047Y-98827380D01*
X147095238Y-98827380D01*
X148095238Y-99827380D02*
X147761904Y-99351190D01*
X147523809Y-99827380D02*
X147523809Y-98827380D01*
X147904761Y-98827380D01*
X148000000Y-98875000D01*
X148047619Y-98922619D01*
X148095238Y-99017857D01*
X148095238Y-99160714D01*
X148047619Y-99255952D01*
X148000000Y-99303571D01*
X147904761Y-99351190D01*
X147523809Y-99351190D01*
X85095238Y-71035714D02*
X85047619Y-71178571D01*
X85047619Y-71416666D01*
X85095238Y-71511904D01*
X85142857Y-71559523D01*
X85238095Y-71607142D01*
X85333333Y-71607142D01*
X85428571Y-71559523D01*
X85476190Y-71511904D01*
X85523809Y-71416666D01*
X85571428Y-71226190D01*
X85619047Y-71130952D01*
X85666666Y-71083333D01*
X85761904Y-71035714D01*
X85857142Y-71035714D01*
X85952380Y-71083333D01*
X86000000Y-71130952D01*
X86047619Y-71226190D01*
X86047619Y-71464285D01*
X86000000Y-71607142D01*
X85047619Y-72035714D02*
X86047619Y-72035714D01*
X86047619Y-72273809D01*
X86000000Y-72416666D01*
X85904761Y-72511904D01*
X85809523Y-72559523D01*
X85619047Y-72607142D01*
X85476190Y-72607142D01*
X85285714Y-72559523D01*
X85190476Y-72511904D01*
X85095238Y-72416666D01*
X85047619Y-72273809D01*
X85047619Y-72035714D01*
X85333333Y-72988095D02*
X85333333Y-73464285D01*
X85047619Y-72892857D02*
X86047619Y-73226190D01*
X85047619Y-73559523D01*
X135202380Y-73702380D02*
X135202380Y-72702380D01*
X135440476Y-72702380D01*
X135583333Y-72750000D01*
X135678571Y-72845238D01*
X135726190Y-72940476D01*
X135773809Y-73130952D01*
X135773809Y-73273809D01*
X135726190Y-73464285D01*
X135678571Y-73559523D01*
X135583333Y-73654761D01*
X135440476Y-73702380D01*
X135202380Y-73702380D01*
X136202380Y-73702380D02*
X136202380Y-72702380D01*
X136630952Y-73416666D02*
X137107142Y-73416666D01*
X136535714Y-73702380D02*
X136869047Y-72702380D01*
X137202380Y-73702380D01*
X138059523Y-72750000D02*
X137964285Y-72702380D01*
X137821428Y-72702380D01*
X137678571Y-72750000D01*
X137583333Y-72845238D01*
X137535714Y-72940476D01*
X137488095Y-73130952D01*
X137488095Y-73273809D01*
X137535714Y-73464285D01*
X137583333Y-73559523D01*
X137678571Y-73654761D01*
X137821428Y-73702380D01*
X137916666Y-73702380D01*
X138059523Y-73654761D01*
X138107142Y-73607142D01*
X138107142Y-73273809D01*
X137916666Y-73273809D01*
X138535714Y-73702380D02*
X138535714Y-72702380D01*
X139107142Y-73702380D01*
X139107142Y-72702380D01*
X139773809Y-72702380D02*
X139964285Y-72702380D01*
X140059523Y-72750000D01*
X140154761Y-72845238D01*
X140202380Y-73035714D01*
X140202380Y-73369047D01*
X140154761Y-73559523D01*
X140059523Y-73654761D01*
X139964285Y-73702380D01*
X139773809Y-73702380D01*
X139678571Y-73654761D01*
X139583333Y-73559523D01*
X139535714Y-73369047D01*
X139535714Y-73035714D01*
X139583333Y-72845238D01*
X139678571Y-72750000D01*
X139773809Y-72702380D01*
X140583333Y-73654761D02*
X140726190Y-73702380D01*
X140964285Y-73702380D01*
X141059523Y-73654761D01*
X141107142Y-73607142D01*
X141154761Y-73511904D01*
X141154761Y-73416666D01*
X141107142Y-73321428D01*
X141059523Y-73273809D01*
X140964285Y-73226190D01*
X140773809Y-73178571D01*
X140678571Y-73130952D01*
X140630952Y-73083333D01*
X140583333Y-72988095D01*
X140583333Y-72892857D01*
X140630952Y-72797619D01*
X140678571Y-72750000D01*
X140773809Y-72702380D01*
X141011904Y-72702380D01*
X141154761Y-72750000D01*
X141440476Y-72702380D02*
X142011904Y-72702380D01*
X141726190Y-73702380D02*
X141726190Y-72702380D01*
X142345238Y-73702380D02*
X142345238Y-72702380D01*
X143392857Y-73607142D02*
X143345238Y-73654761D01*
X143202380Y-73702380D01*
X143107142Y-73702380D01*
X142964285Y-73654761D01*
X142869047Y-73559523D01*
X142821428Y-73464285D01*
X142773809Y-73273809D01*
X142773809Y-73130952D01*
X142821428Y-72940476D01*
X142869047Y-72845238D01*
X142964285Y-72750000D01*
X143107142Y-72702380D01*
X143202380Y-72702380D01*
X143345238Y-72750000D01*
X143392857Y-72797619D01*
X143773809Y-73654761D02*
X143916666Y-73702380D01*
X144154761Y-73702380D01*
X144250000Y-73654761D01*
X144297619Y-73607142D01*
X144345238Y-73511904D01*
X144345238Y-73416666D01*
X144297619Y-73321428D01*
X144250000Y-73273809D01*
X144154761Y-73226190D01*
X143964285Y-73178571D01*
X143869047Y-73130952D01*
X143821428Y-73083333D01*
X143773809Y-72988095D01*
X143773809Y-72892857D01*
X143821428Y-72797619D01*
X143869047Y-72750000D01*
X143964285Y-72702380D01*
X144202380Y-72702380D01*
X144345238Y-72750000D01*
X85095238Y-75559523D02*
X85047619Y-75702380D01*
X85047619Y-75940476D01*
X85095238Y-76035714D01*
X85142857Y-76083333D01*
X85238095Y-76130952D01*
X85333333Y-76130952D01*
X85428571Y-76083333D01*
X85476190Y-76035714D01*
X85523809Y-75940476D01*
X85571428Y-75750000D01*
X85619047Y-75654761D01*
X85666666Y-75607142D01*
X85761904Y-75559523D01*
X85857142Y-75559523D01*
X85952380Y-75607142D01*
X86000000Y-75654761D01*
X86047619Y-75750000D01*
X86047619Y-75988095D01*
X86000000Y-76130952D01*
X85142857Y-77130952D02*
X85095238Y-77083333D01*
X85047619Y-76940476D01*
X85047619Y-76845238D01*
X85095238Y-76702380D01*
X85190476Y-76607142D01*
X85285714Y-76559523D01*
X85476190Y-76511904D01*
X85619047Y-76511904D01*
X85809523Y-76559523D01*
X85904761Y-76607142D01*
X86000000Y-76702380D01*
X86047619Y-76845238D01*
X86047619Y-76940476D01*
X86000000Y-77083333D01*
X85952380Y-77130952D01*
X85047619Y-78035714D02*
X85047619Y-77559523D01*
X86047619Y-77559523D01*
X84797619Y-111880952D02*
X85797619Y-111880952D01*
X85797619Y-112261904D01*
X85750000Y-112357142D01*
X85702380Y-112404761D01*
X85607142Y-112452380D01*
X85464285Y-112452380D01*
X85369047Y-112404761D01*
X85321428Y-112357142D01*
X85273809Y-112261904D01*
X85273809Y-111880952D01*
X85797619Y-112880952D02*
X84988095Y-112880952D01*
X84892857Y-112928571D01*
X84845238Y-112976190D01*
X84797619Y-113071428D01*
X84797619Y-113261904D01*
X84845238Y-113357142D01*
X84892857Y-113404761D01*
X84988095Y-113452380D01*
X85797619Y-113452380D01*
X84845238Y-113880952D02*
X84797619Y-114023809D01*
X84797619Y-114261904D01*
X84845238Y-114357142D01*
X84892857Y-114404761D01*
X84988095Y-114452380D01*
X85083333Y-114452380D01*
X85178571Y-114404761D01*
X85226190Y-114357142D01*
X85273809Y-114261904D01*
X85321428Y-114071428D01*
X85369047Y-113976190D01*
X85416666Y-113928571D01*
X85511904Y-113880952D01*
X85607142Y-113880952D01*
X85702380Y-113928571D01*
X85750000Y-113976190D01*
X85797619Y-114071428D01*
X85797619Y-114309523D01*
X85750000Y-114452380D01*
X84797619Y-114880952D02*
X85797619Y-114880952D01*
X85321428Y-114880952D02*
X85321428Y-115452380D01*
X84797619Y-115452380D02*
X85797619Y-115452380D01*
X85321428Y-116261904D02*
X85273809Y-116404761D01*
X85226190Y-116452380D01*
X85130952Y-116500000D01*
X84988095Y-116500000D01*
X84892857Y-116452380D01*
X84845238Y-116404761D01*
X84797619Y-116309523D01*
X84797619Y-115928571D01*
X85797619Y-115928571D01*
X85797619Y-116261904D01*
X85750000Y-116357142D01*
X85702380Y-116404761D01*
X85607142Y-116452380D01*
X85511904Y-116452380D01*
X85416666Y-116404761D01*
X85369047Y-116357142D01*
X85321428Y-116261904D01*
X85321428Y-115928571D01*
X85797619Y-116928571D02*
X84988095Y-116928571D01*
X84892857Y-116976190D01*
X84845238Y-117023809D01*
X84797619Y-117119047D01*
X84797619Y-117309523D01*
X84845238Y-117404761D01*
X84892857Y-117452380D01*
X84988095Y-117500000D01*
X85797619Y-117500000D01*
X85797619Y-117833333D02*
X85797619Y-118404761D01*
X84797619Y-118119047D02*
X85797619Y-118119047D01*
X85797619Y-118595238D02*
X85797619Y-119166666D01*
X84797619Y-118880952D02*
X85797619Y-118880952D01*
X85797619Y-119690476D02*
X85797619Y-119880952D01*
X85750000Y-119976190D01*
X85654761Y-120071428D01*
X85464285Y-120119047D01*
X85130952Y-120119047D01*
X84940476Y-120071428D01*
X84845238Y-119976190D01*
X84797619Y-119880952D01*
X84797619Y-119690476D01*
X84845238Y-119595238D01*
X84940476Y-119500000D01*
X85130952Y-119452380D01*
X85464285Y-119452380D01*
X85654761Y-119500000D01*
X85750000Y-119595238D01*
X85797619Y-119690476D01*
X84797619Y-120547619D02*
X85797619Y-120547619D01*
X84797619Y-121119047D01*
X85797619Y-121119047D01*
X85178571Y-80464285D02*
X85178571Y-81226190D01*
X84797619Y-80845238D02*
X85559523Y-80845238D01*
X85797619Y-82178571D02*
X85797619Y-81702380D01*
X85321428Y-81654761D01*
X85369047Y-81702380D01*
X85416666Y-81797619D01*
X85416666Y-82035714D01*
X85369047Y-82130952D01*
X85321428Y-82178571D01*
X85226190Y-82226190D01*
X84988095Y-82226190D01*
X84892857Y-82178571D01*
X84845238Y-82130952D01*
X84797619Y-82035714D01*
X84797619Y-81797619D01*
X84845238Y-81702380D01*
X84892857Y-81654761D01*
X85797619Y-82511904D02*
X84797619Y-82845238D01*
X85797619Y-83178571D01*
D11*
X97309523Y-48857142D02*
X97785714Y-51857142D01*
X98166666Y-49714285D01*
X98547619Y-51857142D01*
X99023809Y-48857142D01*
X99690476Y-51000000D02*
X100642857Y-51000000D01*
X99500000Y-51857142D02*
X100166666Y-48857142D01*
X100833333Y-51857142D01*
X101214285Y-48857142D02*
X102357142Y-48857142D01*
X101785714Y-51857142D02*
X101785714Y-48857142D01*
X103023809Y-50285714D02*
X103690476Y-50285714D01*
X103976190Y-51857142D02*
X103023809Y-51857142D01*
X103023809Y-48857142D01*
X103976190Y-48857142D01*
X105976190Y-51857142D02*
X105309523Y-50428571D01*
X104833333Y-51857142D02*
X104833333Y-48857142D01*
X105595238Y-48857142D01*
X105785714Y-49000000D01*
X105880952Y-49142857D01*
X105976190Y-49428571D01*
X105976190Y-49857142D01*
X105880952Y-50142857D01*
X105785714Y-50285714D01*
X105595238Y-50428571D01*
X104833333Y-50428571D01*
X109309523Y-51857142D02*
X108357142Y-51857142D01*
X108357142Y-48857142D01*
X109976190Y-50285714D02*
X110642857Y-50285714D01*
X110928571Y-51857142D02*
X109976190Y-51857142D01*
X109976190Y-48857142D01*
X110928571Y-48857142D01*
X111500000Y-48857142D02*
X112166666Y-51857142D01*
X112833333Y-48857142D01*
X113500000Y-50285714D02*
X114166666Y-50285714D01*
X114452380Y-51857142D02*
X113500000Y-51857142D01*
X113500000Y-48857142D01*
X114452380Y-48857142D01*
X116261904Y-51857142D02*
X115309523Y-51857142D01*
X115309523Y-48857142D01*
X118357142Y-51714285D02*
X118642857Y-51857142D01*
X119119047Y-51857142D01*
X119309523Y-51714285D01*
X119404761Y-51571428D01*
X119500000Y-51285714D01*
X119500000Y-51000000D01*
X119404761Y-50714285D01*
X119309523Y-50571428D01*
X119119047Y-50428571D01*
X118738095Y-50285714D01*
X118547619Y-50142857D01*
X118452380Y-50000000D01*
X118357142Y-49714285D01*
X118357142Y-49428571D01*
X118452380Y-49142857D01*
X118547619Y-49000000D01*
X118738095Y-48857142D01*
X119214285Y-48857142D01*
X119500000Y-49000000D01*
X120357142Y-50285714D02*
X121023809Y-50285714D01*
X121309523Y-51857142D02*
X120357142Y-51857142D01*
X120357142Y-48857142D01*
X121309523Y-48857142D01*
X122166666Y-51857142D02*
X122166666Y-48857142D01*
X123309523Y-51857142D01*
X123309523Y-48857142D01*
X124166666Y-51714285D02*
X124452380Y-51857142D01*
X124928571Y-51857142D01*
X125119047Y-51714285D01*
X125214285Y-51571428D01*
X125309523Y-51285714D01*
X125309523Y-51000000D01*
X125214285Y-50714285D01*
X125119047Y-50571428D01*
X124928571Y-50428571D01*
X124547619Y-50285714D01*
X124357142Y-50142857D01*
X124261904Y-50000000D01*
X124166666Y-49714285D01*
X124166666Y-49428571D01*
X124261904Y-49142857D01*
X124357142Y-49000000D01*
X124547619Y-48857142D01*
X125023809Y-48857142D01*
X125309523Y-49000000D01*
X126547619Y-48857142D02*
X126928571Y-48857142D01*
X127119047Y-49000000D01*
X127309523Y-49285714D01*
X127404761Y-49857142D01*
X127404761Y-50857142D01*
X127309523Y-51428571D01*
X127119047Y-51714285D01*
X126928571Y-51857142D01*
X126547619Y-51857142D01*
X126357142Y-51714285D01*
X126166666Y-51428571D01*
X126071428Y-50857142D01*
X126071428Y-49857142D01*
X126166666Y-49285714D01*
X126357142Y-49000000D01*
X126547619Y-48857142D01*
X129404761Y-51857142D02*
X128738095Y-50428571D01*
X128261904Y-51857142D02*
X128261904Y-48857142D01*
X129023809Y-48857142D01*
X129214285Y-49000000D01*
X129309523Y-49142857D01*
X129404761Y-49428571D01*
X129404761Y-49857142D01*
X129309523Y-50142857D01*
X129214285Y-50285714D01*
X129023809Y-50428571D01*
X128261904Y-50428571D01*
X132357142Y-53000000D02*
X132261904Y-52857142D01*
X132071428Y-52428571D01*
X131976190Y-52142857D01*
X131880952Y-51714285D01*
X131785714Y-51000000D01*
X131785714Y-50428571D01*
X131880952Y-49714285D01*
X131976190Y-49285714D01*
X132071428Y-49000000D01*
X132261904Y-48571428D01*
X132357142Y-48428571D01*
X133976190Y-51714285D02*
X133785714Y-51857142D01*
X133404761Y-51857142D01*
X133214285Y-51714285D01*
X133119047Y-51571428D01*
X133023809Y-51285714D01*
X133023809Y-50428571D01*
X133119047Y-50142857D01*
X133214285Y-50000000D01*
X133404761Y-49857142D01*
X133785714Y-49857142D01*
X133976190Y-50000000D01*
X134642857Y-53000000D02*
X134738095Y-52857142D01*
X134928571Y-52428571D01*
X135023809Y-52142857D01*
X135119047Y-51714285D01*
X135214285Y-51000000D01*
X135214285Y-50428571D01*
X135119047Y-49714285D01*
X135023809Y-49285714D01*
X134928571Y-49000000D01*
X134738095Y-48571428D01*
X134642857Y-48428571D01*
X136833333Y-50285714D02*
X137119047Y-50428571D01*
X137214285Y-50571428D01*
X137309523Y-50857142D01*
X137309523Y-51285714D01*
X137214285Y-51571428D01*
X137119047Y-51714285D01*
X136928571Y-51857142D01*
X136166666Y-51857142D01*
X136166666Y-48857142D01*
X136833333Y-48857142D01*
X137023809Y-49000000D01*
X137119047Y-49142857D01*
X137214285Y-49428571D01*
X137214285Y-49714285D01*
X137119047Y-50000000D01*
X137023809Y-50142857D01*
X136833333Y-50285714D01*
X136166666Y-50285714D01*
X137976190Y-48857142D02*
X138452380Y-51857142D01*
X138833333Y-49714285D01*
X139214285Y-51857142D01*
X139690476Y-48857142D01*
D10*
X129107142Y-55202380D02*
X128773809Y-54726190D01*
X128535714Y-55202380D02*
X128535714Y-54202380D01*
X128916666Y-54202380D01*
X129011904Y-54250000D01*
X129059523Y-54297619D01*
X129107142Y-54392857D01*
X129107142Y-54535714D01*
X129059523Y-54630952D01*
X129011904Y-54678571D01*
X128916666Y-54726190D01*
X128535714Y-54726190D01*
X130059523Y-55202380D02*
X129488095Y-55202380D01*
X129773809Y-55202380D02*
X129773809Y-54202380D01*
X129678571Y-54345238D01*
X129583333Y-54440476D01*
X129488095Y-54488095D01*
X130678571Y-54202380D02*
X130773809Y-54202380D01*
X130869047Y-54250000D01*
X130916666Y-54297619D01*
X130964285Y-54392857D01*
X131011904Y-54583333D01*
X131011904Y-54821428D01*
X130964285Y-55011904D01*
X130916666Y-55107142D01*
X130869047Y-55154761D01*
X130773809Y-55202380D01*
X130678571Y-55202380D01*
X130583333Y-55154761D01*
X130535714Y-55107142D01*
X130488095Y-55011904D01*
X130440476Y-54821428D01*
X130440476Y-54583333D01*
X130488095Y-54392857D01*
X130535714Y-54297619D01*
X130583333Y-54250000D01*
X130678571Y-54202380D01*
X150572380Y-60331666D02*
X150096190Y-60665000D01*
X150572380Y-60903095D02*
X149572380Y-60903095D01*
X149572380Y-60522142D01*
X149620000Y-60426904D01*
X149667619Y-60379285D01*
X149762857Y-60331666D01*
X149905714Y-60331666D01*
X150000952Y-60379285D01*
X150048571Y-60426904D01*
X150096190Y-60522142D01*
X150096190Y-60903095D01*
X150572380Y-59379285D02*
X150572380Y-59950714D01*
X150572380Y-59665000D02*
X149572380Y-59665000D01*
X149715238Y-59760238D01*
X149810476Y-59855476D01*
X149858095Y-59950714D01*
X133333333Y-59107142D02*
X133285714Y-59154761D01*
X133142857Y-59202380D01*
X133047619Y-59202380D01*
X132904761Y-59154761D01*
X132809523Y-59059523D01*
X132761904Y-58964285D01*
X132714285Y-58773809D01*
X132714285Y-58630952D01*
X132761904Y-58440476D01*
X132809523Y-58345238D01*
X132904761Y-58250000D01*
X133047619Y-58202380D01*
X133142857Y-58202380D01*
X133285714Y-58250000D01*
X133333333Y-58297619D01*
X134190476Y-58535714D02*
X134190476Y-59202380D01*
X133952380Y-58154761D02*
X133714285Y-58869047D01*
X134333333Y-58869047D01*
X99602380Y-79833333D02*
X100316666Y-79833333D01*
X100459523Y-79880952D01*
X100554761Y-79976190D01*
X100602380Y-80119047D01*
X100602380Y-80214285D01*
X99935714Y-78928571D02*
X100602380Y-78928571D01*
X99554761Y-79166666D02*
X100269047Y-79404761D01*
X100269047Y-78785714D01*
X116952380Y-117706666D02*
X116476190Y-118040000D01*
X116952380Y-118278095D02*
X115952380Y-118278095D01*
X115952380Y-117897142D01*
X116000000Y-117801904D01*
X116047619Y-117754285D01*
X116142857Y-117706666D01*
X116285714Y-117706666D01*
X116380952Y-117754285D01*
X116428571Y-117801904D01*
X116476190Y-117897142D01*
X116476190Y-118278095D01*
X115952380Y-116801904D02*
X115952380Y-117278095D01*
X116428571Y-117325714D01*
X116380952Y-117278095D01*
X116333333Y-117182857D01*
X116333333Y-116944761D01*
X116380952Y-116849523D01*
X116428571Y-116801904D01*
X116523809Y-116754285D01*
X116761904Y-116754285D01*
X116857142Y-116801904D01*
X116904761Y-116849523D01*
X116952380Y-116944761D01*
X116952380Y-117182857D01*
X116904761Y-117278095D01*
X116857142Y-117325714D01*
X143904761Y-67833333D02*
X143952380Y-67690476D01*
X143952380Y-67452380D01*
X143904761Y-67357142D01*
X143857142Y-67309523D01*
X143761904Y-67261904D01*
X143666666Y-67261904D01*
X143571428Y-67309523D01*
X143523809Y-67357142D01*
X143476190Y-67452380D01*
X143428571Y-67642857D01*
X143380952Y-67738095D01*
X143333333Y-67785714D01*
X143238095Y-67833333D01*
X143142857Y-67833333D01*
X143047619Y-67785714D01*
X143000000Y-67738095D01*
X142952380Y-67642857D01*
X142952380Y-67404761D01*
X143000000Y-67261904D01*
X142952380Y-66928571D02*
X143952380Y-66690476D01*
X143238095Y-66500000D01*
X143952380Y-66309523D01*
X142952380Y-66071428D01*
X143952380Y-65166666D02*
X143952380Y-65738095D01*
X143952380Y-65452380D02*
X142952380Y-65452380D01*
X143095238Y-65547619D01*
X143190476Y-65642857D01*
X143238095Y-65738095D01*
X112492619Y-109635238D02*
X112445000Y-109730476D01*
X112349761Y-109825714D01*
X112206904Y-109968571D01*
X112159285Y-110063809D01*
X112159285Y-110159047D01*
X112397380Y-110111428D02*
X112349761Y-110206666D01*
X112254523Y-110301904D01*
X112064047Y-110349523D01*
X111730714Y-110349523D01*
X111540238Y-110301904D01*
X111445000Y-110206666D01*
X111397380Y-110111428D01*
X111397380Y-109920952D01*
X111445000Y-109825714D01*
X111540238Y-109730476D01*
X111730714Y-109682857D01*
X112064047Y-109682857D01*
X112254523Y-109730476D01*
X112349761Y-109825714D01*
X112397380Y-109920952D01*
X112397380Y-110111428D01*
X112397380Y-108730476D02*
X112397380Y-109301904D01*
X112397380Y-109016190D02*
X111397380Y-109016190D01*
X111540238Y-109111428D01*
X111635476Y-109206666D01*
X111683095Y-109301904D01*
X145630952Y-112829380D02*
X145821428Y-112829380D01*
X145916666Y-112877000D01*
X146011904Y-112972238D01*
X146059523Y-113162714D01*
X146059523Y-113496047D01*
X146011904Y-113686523D01*
X145916666Y-113781761D01*
X145821428Y-113829380D01*
X145630952Y-113829380D01*
X145535714Y-113781761D01*
X145440476Y-113686523D01*
X145392857Y-113496047D01*
X145392857Y-113162714D01*
X145440476Y-112972238D01*
X145535714Y-112877000D01*
X145630952Y-112829380D01*
X146488095Y-112829380D02*
X146488095Y-113638904D01*
X146535714Y-113734142D01*
X146583333Y-113781761D01*
X146678571Y-113829380D01*
X146869047Y-113829380D01*
X146964285Y-113781761D01*
X147011904Y-113734142D01*
X147059523Y-113638904D01*
X147059523Y-112829380D01*
X147392857Y-112829380D02*
X147964285Y-112829380D01*
X147678571Y-113829380D02*
X147678571Y-112829380D01*
X148297619Y-113448428D02*
X149059523Y-113448428D01*
X102952380Y-102166666D02*
X102476190Y-102500000D01*
X102952380Y-102738095D02*
X101952380Y-102738095D01*
X101952380Y-102357142D01*
X102000000Y-102261904D01*
X102047619Y-102214285D01*
X102142857Y-102166666D01*
X102285714Y-102166666D01*
X102380952Y-102214285D01*
X102428571Y-102261904D01*
X102476190Y-102357142D01*
X102476190Y-102738095D01*
X102047619Y-101785714D02*
X102000000Y-101738095D01*
X101952380Y-101642857D01*
X101952380Y-101404761D01*
X102000000Y-101309523D01*
X102047619Y-101261904D01*
X102142857Y-101214285D01*
X102238095Y-101214285D01*
X102380952Y-101261904D01*
X102952380Y-101833333D01*
X102952380Y-101214285D01*
X138107142Y-83577380D02*
X138107142Y-82577380D01*
X138583333Y-83577380D02*
X138583333Y-82577380D01*
X139154761Y-83577380D01*
X139154761Y-82577380D01*
X139630952Y-83196428D02*
X140392857Y-83196428D01*
X140011904Y-83577380D02*
X140011904Y-82815476D01*
X115107142Y-126166666D02*
X115154761Y-126214285D01*
X115202380Y-126357142D01*
X115202380Y-126452380D01*
X115154761Y-126595238D01*
X115059523Y-126690476D01*
X114964285Y-126738095D01*
X114773809Y-126785714D01*
X114630952Y-126785714D01*
X114440476Y-126738095D01*
X114345238Y-126690476D01*
X114250000Y-126595238D01*
X114202380Y-126452380D01*
X114202380Y-126357142D01*
X114250000Y-126214285D01*
X114297619Y-126166666D01*
X115202380Y-125214285D02*
X115202380Y-125785714D01*
X115202380Y-125500000D02*
X114202380Y-125500000D01*
X114345238Y-125595238D01*
X114440476Y-125690476D01*
X114488095Y-125785714D01*
X115275714Y-100296666D02*
X115751904Y-100296666D01*
X115180476Y-100582380D02*
X115513809Y-99582380D01*
X115847142Y-100582380D01*
X116704285Y-100582380D02*
X116132857Y-100582380D01*
X116418571Y-100582380D02*
X116418571Y-99582380D01*
X116323333Y-99725238D01*
X116228095Y-99820476D01*
X116132857Y-99868095D01*
X99442380Y-112413333D02*
X100156666Y-112413333D01*
X100299523Y-112460952D01*
X100394761Y-112556190D01*
X100442380Y-112699047D01*
X100442380Y-112794285D01*
X99442380Y-112032380D02*
X99442380Y-111413333D01*
X99823333Y-111746666D01*
X99823333Y-111603809D01*
X99870952Y-111508571D01*
X99918571Y-111460952D01*
X100013809Y-111413333D01*
X100251904Y-111413333D01*
X100347142Y-111460952D01*
X100394761Y-111508571D01*
X100442380Y-111603809D01*
X100442380Y-111889523D01*
X100394761Y-111984761D01*
X100347142Y-112032380D01*
X99857142Y-63166666D02*
X99904761Y-63214285D01*
X99952380Y-63357142D01*
X99952380Y-63452380D01*
X99904761Y-63595238D01*
X99809523Y-63690476D01*
X99714285Y-63738095D01*
X99523809Y-63785714D01*
X99380952Y-63785714D01*
X99190476Y-63738095D01*
X99095238Y-63690476D01*
X99000000Y-63595238D01*
X98952380Y-63452380D01*
X98952380Y-63357142D01*
X99000000Y-63214285D01*
X99047619Y-63166666D01*
X98952380Y-62833333D02*
X98952380Y-62214285D01*
X99333333Y-62547619D01*
X99333333Y-62404761D01*
X99380952Y-62309523D01*
X99428571Y-62261904D01*
X99523809Y-62214285D01*
X99761904Y-62214285D01*
X99857142Y-62261904D01*
X99904761Y-62309523D01*
X99952380Y-62404761D01*
X99952380Y-62690476D01*
X99904761Y-62785714D01*
X99857142Y-62833333D01*
X134702380Y-117916666D02*
X134226190Y-118250000D01*
X134702380Y-118488095D02*
X133702380Y-118488095D01*
X133702380Y-118107142D01*
X133750000Y-118011904D01*
X133797619Y-117964285D01*
X133892857Y-117916666D01*
X134035714Y-117916666D01*
X134130952Y-117964285D01*
X134178571Y-118011904D01*
X134226190Y-118107142D01*
X134226190Y-118488095D01*
X133702380Y-117583333D02*
X133702380Y-116916666D01*
X134702380Y-117345238D01*
X93952380Y-102166666D02*
X93476190Y-102500000D01*
X93952380Y-102738095D02*
X92952380Y-102738095D01*
X92952380Y-102357142D01*
X93000000Y-102261904D01*
X93047619Y-102214285D01*
X93142857Y-102166666D01*
X93285714Y-102166666D01*
X93380952Y-102214285D01*
X93428571Y-102261904D01*
X93476190Y-102357142D01*
X93476190Y-102738095D01*
X92952380Y-101833333D02*
X92952380Y-101214285D01*
X93333333Y-101547619D01*
X93333333Y-101404761D01*
X93380952Y-101309523D01*
X93428571Y-101261904D01*
X93523809Y-101214285D01*
X93761904Y-101214285D01*
X93857142Y-101261904D01*
X93904761Y-101309523D01*
X93952380Y-101404761D01*
X93952380Y-101690476D01*
X93904761Y-101785714D01*
X93857142Y-101833333D01*
X138130952Y-112827380D02*
X138321428Y-112827380D01*
X138416666Y-112875000D01*
X138511904Y-112970238D01*
X138559523Y-113160714D01*
X138559523Y-113494047D01*
X138511904Y-113684523D01*
X138416666Y-113779761D01*
X138321428Y-113827380D01*
X138130952Y-113827380D01*
X138035714Y-113779761D01*
X137940476Y-113684523D01*
X137892857Y-113494047D01*
X137892857Y-113160714D01*
X137940476Y-112970238D01*
X138035714Y-112875000D01*
X138130952Y-112827380D01*
X138988095Y-112827380D02*
X138988095Y-113636904D01*
X139035714Y-113732142D01*
X139083333Y-113779761D01*
X139178571Y-113827380D01*
X139369047Y-113827380D01*
X139464285Y-113779761D01*
X139511904Y-113732142D01*
X139559523Y-113636904D01*
X139559523Y-112827380D01*
X139892857Y-112827380D02*
X140464285Y-112827380D01*
X140178571Y-113827380D02*
X140178571Y-112827380D01*
X140797619Y-113446428D02*
X141559523Y-113446428D01*
X141178571Y-113827380D02*
X141178571Y-113065476D01*
X106822380Y-114916666D02*
X106346190Y-115250000D01*
X106822380Y-115488095D02*
X105822380Y-115488095D01*
X105822380Y-115107142D01*
X105870000Y-115011904D01*
X105917619Y-114964285D01*
X106012857Y-114916666D01*
X106155714Y-114916666D01*
X106250952Y-114964285D01*
X106298571Y-115011904D01*
X106346190Y-115107142D01*
X106346190Y-115488095D01*
X106155714Y-114059523D02*
X106822380Y-114059523D01*
X105774761Y-114297619D02*
X106489047Y-114535714D01*
X106489047Y-113916666D01*
X132572380Y-95666666D02*
X132096190Y-96000000D01*
X132572380Y-96238095D02*
X131572380Y-96238095D01*
X131572380Y-95857142D01*
X131620000Y-95761904D01*
X131667619Y-95714285D01*
X131762857Y-95666666D01*
X131905714Y-95666666D01*
X132000952Y-95714285D01*
X132048571Y-95761904D01*
X132096190Y-95857142D01*
X132096190Y-96238095D01*
X131572380Y-94809523D02*
X131572380Y-95000000D01*
X131620000Y-95095238D01*
X131667619Y-95142857D01*
X131810476Y-95238095D01*
X132000952Y-95285714D01*
X132381904Y-95285714D01*
X132477142Y-95238095D01*
X132524761Y-95190476D01*
X132572380Y-95095238D01*
X132572380Y-94904761D01*
X132524761Y-94809523D01*
X132477142Y-94761904D01*
X132381904Y-94714285D01*
X132143809Y-94714285D01*
X132048571Y-94761904D01*
X132000952Y-94809523D01*
X131953333Y-94904761D01*
X131953333Y-95095238D01*
X132000952Y-95190476D01*
X132048571Y-95238095D01*
X132143809Y-95285714D01*
X128416666Y-129952380D02*
X128416666Y-130666666D01*
X128369047Y-130809523D01*
X128273809Y-130904761D01*
X128130952Y-130952380D01*
X128035714Y-130952380D01*
X128845238Y-130047619D02*
X128892857Y-130000000D01*
X128988095Y-129952380D01*
X129226190Y-129952380D01*
X129321428Y-130000000D01*
X129369047Y-130047619D01*
X129416666Y-130142857D01*
X129416666Y-130238095D01*
X129369047Y-130380952D01*
X128797619Y-130952380D01*
X129416666Y-130952380D01*
X96452380Y-56845238D02*
X95976190Y-57178571D01*
X96452380Y-57416666D02*
X95452380Y-57416666D01*
X95452380Y-57035714D01*
X95500000Y-56940476D01*
X95547619Y-56892857D01*
X95642857Y-56845238D01*
X95785714Y-56845238D01*
X95880952Y-56892857D01*
X95928571Y-56940476D01*
X95976190Y-57035714D01*
X95976190Y-57416666D01*
X95452380Y-56559523D02*
X96452380Y-56226190D01*
X95452380Y-55892857D01*
X96452380Y-55035714D02*
X96452380Y-55607142D01*
X96452380Y-55321428D02*
X95452380Y-55321428D01*
X95595238Y-55416666D01*
X95690476Y-55511904D01*
X95738095Y-55607142D01*
X146107142Y-83577380D02*
X146107142Y-82577380D01*
X146583333Y-83577380D02*
X146583333Y-82577380D01*
X147154761Y-83577380D01*
X147154761Y-82577380D01*
X147630952Y-83196428D02*
X148392857Y-83196428D01*
X148901666Y-128952380D02*
X148901666Y-129666666D01*
X148854047Y-129809523D01*
X148758809Y-129904761D01*
X148615952Y-129952380D01*
X148520714Y-129952380D01*
X149901666Y-129952380D02*
X149330238Y-129952380D01*
X149615952Y-129952380D02*
X149615952Y-128952380D01*
X149520714Y-129095238D01*
X149425476Y-129190476D01*
X149330238Y-129238095D01*
X128817619Y-114635238D02*
X128770000Y-114730476D01*
X128674761Y-114825714D01*
X128531904Y-114968571D01*
X128484285Y-115063809D01*
X128484285Y-115159047D01*
X128722380Y-115111428D02*
X128674761Y-115206666D01*
X128579523Y-115301904D01*
X128389047Y-115349523D01*
X128055714Y-115349523D01*
X127865238Y-115301904D01*
X127770000Y-115206666D01*
X127722380Y-115111428D01*
X127722380Y-114920952D01*
X127770000Y-114825714D01*
X127865238Y-114730476D01*
X128055714Y-114682857D01*
X128389047Y-114682857D01*
X128579523Y-114730476D01*
X128674761Y-114825714D01*
X128722380Y-114920952D01*
X128722380Y-115111428D01*
X127817619Y-114301904D02*
X127770000Y-114254285D01*
X127722380Y-114159047D01*
X127722380Y-113920952D01*
X127770000Y-113825714D01*
X127817619Y-113778095D01*
X127912857Y-113730476D01*
X128008095Y-113730476D01*
X128150952Y-113778095D01*
X128722380Y-114349523D01*
X128722380Y-113730476D01*
X89607142Y-96166666D02*
X89654761Y-96214285D01*
X89702380Y-96357142D01*
X89702380Y-96452380D01*
X89654761Y-96595238D01*
X89559523Y-96690476D01*
X89464285Y-96738095D01*
X89273809Y-96785714D01*
X89130952Y-96785714D01*
X88940476Y-96738095D01*
X88845238Y-96690476D01*
X88750000Y-96595238D01*
X88702380Y-96452380D01*
X88702380Y-96357142D01*
X88750000Y-96214285D01*
X88797619Y-96166666D01*
X88797619Y-95785714D02*
X88750000Y-95738095D01*
X88702380Y-95642857D01*
X88702380Y-95404761D01*
X88750000Y-95309523D01*
X88797619Y-95261904D01*
X88892857Y-95214285D01*
X88988095Y-95214285D01*
X89130952Y-95261904D01*
X89702380Y-95833333D01*
X89702380Y-95214285D01*
D12*
X141790000Y-54750000D02*
X141020000Y-54750000D01*
X134480000Y-53380000D02*
X134480000Y-56120000D01*
X133710000Y-54750000D02*
X134480000Y-54750000D01*
X134480000Y-56120000D02*
X141020000Y-56120000D01*
X141020000Y-53380000D02*
X134480000Y-53380000D01*
X141020000Y-56120000D02*
X141020000Y-53380000D01*
X149120000Y-56895000D02*
X146380000Y-56895000D01*
X146380000Y-56895000D02*
X146380000Y-63435000D01*
X147750000Y-64205000D02*
X147750000Y-63435000D01*
X147750000Y-56125000D02*
X147750000Y-56895000D01*
X149120000Y-63435000D02*
X149120000Y-56895000D01*
X146380000Y-63435000D02*
X149120000Y-63435000D01*
X142370000Y-57380000D02*
X142370000Y-60120000D01*
X135130000Y-57380000D02*
X135130000Y-60120000D01*
X135130000Y-60120000D02*
X142370000Y-60120000D01*
X135130000Y-57380000D02*
X142370000Y-57380000D01*
X89400000Y-90200000D02*
X87350000Y-90200000D01*
X86700000Y-69350000D02*
X99300000Y-69350000D01*
X87650000Y-89650000D02*
X86700000Y-89650000D01*
X99300000Y-90150000D02*
X94250000Y-90150000D01*
X99300000Y-69350000D02*
X99300000Y-90150000D01*
X86700000Y-89650000D02*
X86700000Y-69350000D01*
X94500000Y-89650000D02*
X89100000Y-89650000D01*
X89100000Y-89650000D02*
X89400000Y-90200000D01*
X87350000Y-90200000D02*
X87650000Y-89650000D01*
X94250000Y-90150000D02*
X94500000Y-89650000D01*
X120315000Y-117810000D02*
X120315000Y-111270000D01*
X117575000Y-117810000D02*
X120315000Y-117810000D01*
X118945000Y-110500000D02*
X118945000Y-111270000D01*
X118945000Y-118580000D02*
X118945000Y-117810000D01*
X117575000Y-111270000D02*
X117575000Y-117810000D01*
X120315000Y-111270000D02*
X117575000Y-111270000D01*
X140000000Y-63000000D02*
X138500000Y-63000000D01*
X142500000Y-68750000D02*
X142500000Y-64250000D01*
X138500000Y-70000000D02*
X140000000Y-70000000D01*
X136000000Y-64250000D02*
X136000000Y-68750000D01*
X110095000Y-112010000D02*
X110095000Y-115610000D01*
X110106522Y-115648478D02*
G75*
G03*
X114545000Y-113810000I1838478J1838478D01*
G01*
X114545001Y-113810000D02*
G75*
G03*
X110106522Y-111971522I-2600001J0D01*
G01*
X145550000Y-114175000D02*
X147950000Y-114175000D01*
X147950000Y-116575000D02*
X145550000Y-116575000D01*
X145550000Y-116575000D02*
X145550000Y-114175000D01*
X147950000Y-114175000D02*
X147950000Y-116575000D01*
X98630000Y-95480000D02*
X98630000Y-102020000D01*
X101370000Y-102020000D02*
X101370000Y-95480000D01*
X100000000Y-94710000D02*
X100000000Y-95480000D01*
X100000000Y-102790000D02*
X100000000Y-102020000D01*
X101370000Y-95480000D02*
X98630000Y-95480000D01*
X98630000Y-102020000D02*
X101370000Y-102020000D01*
X138050000Y-86575000D02*
X138050000Y-84175000D01*
X140450000Y-86575000D02*
X138050000Y-86575000D01*
X138050000Y-84175000D02*
X140450000Y-84175000D01*
X140450000Y-84175000D02*
X140450000Y-86575000D01*
X111052000Y-129801000D02*
X107948000Y-129801000D01*
X111231000Y-129721000D02*
X107769000Y-129721000D01*
X113548000Y-126520000D02*
X105452000Y-126520000D01*
X111954000Y-129281000D02*
X110540000Y-129281000D01*
X113350000Y-127361000D02*
X105650000Y-127361000D01*
X110953000Y-129841000D02*
X108047000Y-129841000D01*
X111464000Y-129601000D02*
X107536000Y-129601000D01*
X113524000Y-126680000D02*
X105476000Y-126680000D01*
X112445000Y-128841000D02*
X110540000Y-128841000D01*
X113580000Y-126080000D02*
X105420000Y-126080000D01*
X112750000Y-128481000D02*
X110540000Y-128481000D01*
X112809000Y-128401000D02*
X110540000Y-128401000D01*
X110846000Y-129881000D02*
X108154000Y-129881000D01*
X112720000Y-128521000D02*
X110540000Y-128521000D01*
X113571000Y-126280000D02*
X105429000Y-126280000D01*
X113494000Y-126841000D02*
X105506000Y-126841000D01*
X112151000Y-129121000D02*
X110540000Y-129121000D01*
X113552000Y-126480000D02*
X105448000Y-126480000D01*
X112241000Y-129041000D02*
X110540000Y-129041000D01*
X113040000Y-128041000D02*
X110540000Y-128041000D01*
X111145000Y-129761000D02*
X107855000Y-129761000D01*
X111900000Y-129321000D02*
X110540000Y-129321000D01*
X113402000Y-127201000D02*
X105598000Y-127201000D01*
X113580000Y-126040000D02*
X105420000Y-126040000D01*
X113084000Y-127961000D02*
X110540000Y-127961000D01*
X108460000Y-127881000D02*
X105873000Y-127881000D01*
X113147000Y-127841000D02*
X110540000Y-127841000D01*
X108460000Y-128161000D02*
X106031000Y-128161000D01*
X112367000Y-128921000D02*
X110540000Y-128921000D01*
X112689000Y-128561000D02*
X110540000Y-128561000D01*
X111728000Y-129441000D02*
X110540000Y-129441000D01*
X113502000Y-126801000D02*
X105498000Y-126801000D01*
X113517000Y-126721000D02*
X105483000Y-126721000D01*
X108460000Y-128441000D02*
X106220000Y-128441000D01*
X112993000Y-128121000D02*
X110540000Y-128121000D01*
X113389000Y-127241000D02*
X105611000Y-127241000D01*
X112407000Y-128881000D02*
X110540000Y-128881000D01*
X113476000Y-126921000D02*
X105524000Y-126921000D01*
X112104000Y-129161000D02*
X110540000Y-129161000D01*
X113565000Y-126360000D02*
X105435000Y-126360000D01*
X113305000Y-127481000D02*
X110540000Y-127481000D01*
X113363000Y-127321000D02*
X105637000Y-127321000D01*
X108460000Y-128121000D02*
X106007000Y-128121000D01*
X108460000Y-128001000D02*
X105938000Y-128001000D01*
X108460000Y-129001000D02*
X106716000Y-129001000D01*
X113542000Y-126560000D02*
X105458000Y-126560000D01*
X110033000Y-130081000D02*
X108967000Y-130081000D01*
X113321000Y-127441000D02*
X105679000Y-127441000D01*
X113240000Y-127641000D02*
X110540000Y-127641000D01*
X108460000Y-128081000D02*
X105983000Y-128081000D01*
X111815000Y-121590302D02*
X111815000Y-122390302D01*
X113574000Y-126240000D02*
X105426000Y-126240000D01*
X110598000Y-129961000D02*
X108402000Y-129961000D01*
X113377000Y-127281000D02*
X105623000Y-127281000D01*
X108460000Y-128881000D02*
X106593000Y-128881000D01*
X113457000Y-127001000D02*
X105543000Y-127001000D01*
X108460000Y-127481000D02*
X105695000Y-127481000D01*
X113106000Y-127921000D02*
X110540000Y-127921000D01*
X113568000Y-126320000D02*
X105432000Y-126320000D01*
X112326000Y-128961000D02*
X110540000Y-128961000D01*
X113414000Y-127161000D02*
X105586000Y-127161000D01*
X112656000Y-128601000D02*
X110540000Y-128601000D01*
X108460000Y-127641000D02*
X105760000Y-127641000D01*
X108460000Y-127681000D02*
X105778000Y-127681000D01*
X108460000Y-129481000D02*
X107334000Y-129481000D01*
X108460000Y-128641000D02*
X106376000Y-128641000D01*
X108460000Y-128481000D02*
X106250000Y-128481000D01*
X108460000Y-129241000D02*
X106995000Y-129241000D01*
X111845000Y-129361000D02*
X110540000Y-129361000D01*
X111787000Y-129401000D02*
X110540000Y-129401000D01*
X108460000Y-129441000D02*
X107272000Y-129441000D01*
X112969000Y-128161000D02*
X110540000Y-128161000D01*
X108460000Y-128961000D02*
X106674000Y-128961000D01*
X113561000Y-126400000D02*
X105439000Y-126400000D01*
X112590000Y-128681000D02*
X110540000Y-128681000D01*
X108460000Y-129361000D02*
X107155000Y-129361000D01*
X108460000Y-127841000D02*
X105853000Y-127841000D01*
X108460000Y-128561000D02*
X106311000Y-128561000D01*
X113186000Y-127761000D02*
X110540000Y-127761000D01*
X108460000Y-129401000D02*
X107213000Y-129401000D01*
X112780000Y-128441000D02*
X110540000Y-128441000D01*
X113447000Y-127041000D02*
X105553000Y-127041000D01*
X113579000Y-126120000D02*
X105421000Y-126120000D01*
X113257000Y-127601000D02*
X110540000Y-127601000D01*
X111602000Y-129521000D02*
X110540000Y-129521000D01*
X108460000Y-128721000D02*
X106445000Y-128721000D01*
X112005000Y-129241000D02*
X110540000Y-129241000D01*
X108460000Y-129521000D02*
X107398000Y-129521000D01*
X108460000Y-127801000D02*
X105834000Y-127801000D01*
X108460000Y-127601000D02*
X105743000Y-127601000D01*
X108460000Y-128601000D02*
X106344000Y-128601000D01*
X108460000Y-129321000D02*
X107100000Y-129321000D01*
X108460000Y-128801000D02*
X106517000Y-128801000D01*
X112944000Y-128201000D02*
X110540000Y-128201000D01*
X113436000Y-127081000D02*
X105564000Y-127081000D01*
X111390000Y-129641000D02*
X107610000Y-129641000D01*
X110729000Y-129921000D02*
X108271000Y-129921000D01*
X113467000Y-126961000D02*
X105533000Y-126961000D01*
X113335000Y-127401000D02*
X105665000Y-127401000D01*
X108460000Y-128201000D02*
X106056000Y-128201000D01*
X110268000Y-130041000D02*
X108732000Y-130041000D01*
X113274000Y-127561000D02*
X110540000Y-127561000D01*
X108460000Y-129281000D02*
X107046000Y-129281000D01*
X108460000Y-127961000D02*
X105916000Y-127961000D01*
X108460000Y-128281000D02*
X106108000Y-128281000D01*
X113222000Y-127681000D02*
X110540000Y-127681000D01*
X111534000Y-129561000D02*
X107466000Y-129561000D01*
X110448000Y-130001000D02*
X108552000Y-130001000D01*
X112215000Y-121990302D02*
X111415000Y-121990302D01*
X112197000Y-129081000D02*
X110540000Y-129081000D01*
X108460000Y-129201000D02*
X106944000Y-129201000D01*
X108460000Y-129121000D02*
X106849000Y-129121000D01*
X112865000Y-128321000D02*
X110540000Y-128321000D01*
X112838000Y-128361000D02*
X110540000Y-128361000D01*
X112918000Y-128241000D02*
X110540000Y-128241000D01*
X108460000Y-129081000D02*
X106803000Y-129081000D01*
X113510000Y-126761000D02*
X105490000Y-126761000D01*
X111666000Y-129481000D02*
X110540000Y-129481000D01*
X108460000Y-127521000D02*
X105710000Y-127521000D01*
X108460000Y-128321000D02*
X106135000Y-128321000D01*
X112056000Y-129201000D02*
X110540000Y-129201000D01*
X113166000Y-127801000D02*
X110540000Y-127801000D01*
X108460000Y-127721000D02*
X105796000Y-127721000D01*
X112519000Y-128761000D02*
X110540000Y-128761000D01*
X112892000Y-128281000D02*
X110540000Y-128281000D01*
X113062000Y-128001000D02*
X110540000Y-128001000D01*
X113290000Y-127521000D02*
X110540000Y-127521000D01*
X108460000Y-128361000D02*
X106162000Y-128361000D01*
X108460000Y-129161000D02*
X106896000Y-129161000D01*
X108460000Y-127761000D02*
X105814000Y-127761000D01*
X108460000Y-127561000D02*
X105726000Y-127561000D01*
X113577000Y-126160000D02*
X105423000Y-126160000D01*
X112555000Y-128721000D02*
X110540000Y-128721000D01*
X113530000Y-126640000D02*
X105470000Y-126640000D01*
X112624000Y-128641000D02*
X110540000Y-128641000D01*
X108460000Y-128761000D02*
X106481000Y-128761000D01*
X113485000Y-126881000D02*
X105515000Y-126881000D01*
X113204000Y-127721000D02*
X110540000Y-127721000D01*
X113576000Y-126200000D02*
X105424000Y-126200000D01*
X113425000Y-127121000D02*
X105575000Y-127121000D01*
X112284000Y-129001000D02*
X110540000Y-129001000D01*
X112483000Y-128801000D02*
X110540000Y-128801000D01*
X108460000Y-128241000D02*
X106082000Y-128241000D01*
X111313000Y-129681000D02*
X107687000Y-129681000D01*
X113580000Y-126000000D02*
X105420000Y-126000000D01*
X108460000Y-128841000D02*
X106555000Y-128841000D01*
X108460000Y-128921000D02*
X106633000Y-128921000D01*
X108460000Y-128401000D02*
X106191000Y-128401000D01*
X113017000Y-128081000D02*
X110540000Y-128081000D01*
X113537000Y-126600000D02*
X105463000Y-126600000D01*
X113127000Y-127881000D02*
X110540000Y-127881000D01*
X113557000Y-126440000D02*
X105443000Y-126440000D01*
X108460000Y-128681000D02*
X106410000Y-128681000D01*
X108460000Y-127921000D02*
X105894000Y-127921000D01*
X108460000Y-128521000D02*
X106280000Y-128521000D01*
X108460000Y-128041000D02*
X105960000Y-128041000D01*
X108460000Y-129041000D02*
X106759000Y-129041000D01*
X113620000Y-126000000D02*
G75*
G03*
X113620000Y-126000000I-4120000J0D01*
G01*
X122340000Y-58220000D02*
X125010000Y-58220000D01*
X109640000Y-96320000D02*
X106970000Y-96320000D01*
X125010000Y-98990000D02*
X125010000Y-96320000D01*
X122340000Y-93780000D02*
X122340000Y-58220000D01*
X122340000Y-93780000D02*
X122340000Y-96320000D01*
X106970000Y-55550000D02*
X106970000Y-98990000D01*
X125010000Y-55550000D02*
X106970000Y-55550000D01*
X106970000Y-98990000D02*
X125010000Y-98990000D01*
X109640000Y-58220000D02*
X106970000Y-58220000D01*
X122340000Y-93780000D02*
X125010000Y-93780000D01*
X109640000Y-96320000D02*
X109640000Y-58220000D01*
X122340000Y-96320000D02*
X125010000Y-96320000D01*
X125010000Y-93780000D02*
X125010000Y-55550000D01*
X94200000Y-122200000D02*
X99300000Y-122200000D01*
X87400000Y-122200000D02*
X89300000Y-122200000D01*
X89100000Y-121700000D02*
X94500000Y-121700000D01*
X86700000Y-111350000D02*
X86700000Y-121700000D01*
X99300000Y-122200000D02*
X99300000Y-111350000D01*
X99300000Y-111350000D02*
X86700000Y-111350000D01*
X86700000Y-121700000D02*
X87650000Y-121700000D01*
X94500000Y-121700000D02*
X94200000Y-122200000D01*
X89300000Y-122200000D02*
X89350000Y-122200000D01*
X89350000Y-122200000D02*
X89100000Y-121700000D01*
X87650000Y-121700000D02*
X87400000Y-122200000D01*
X103370000Y-66620000D02*
X103370000Y-59380000D01*
X100630000Y-66620000D02*
X100630000Y-59380000D01*
X100630000Y-59380000D02*
X103370000Y-59380000D01*
X100630000Y-66620000D02*
X103370000Y-66620000D01*
X130380000Y-111270000D02*
X130380000Y-117810000D01*
X133120000Y-117810000D02*
X133120000Y-111270000D01*
X133120000Y-111270000D02*
X130380000Y-111270000D01*
X131750000Y-118580000D02*
X131750000Y-117810000D01*
X130380000Y-117810000D02*
X133120000Y-117810000D01*
X131750000Y-110500000D02*
X131750000Y-111270000D01*
X97120000Y-95560000D02*
X94380000Y-95560000D01*
X94380000Y-102100000D02*
X97120000Y-102100000D01*
X95750000Y-94790000D02*
X95750000Y-95560000D01*
X94380000Y-95560000D02*
X94380000Y-102100000D01*
X97120000Y-102100000D02*
X97120000Y-95560000D01*
X95750000Y-102870000D02*
X95750000Y-102100000D01*
X140450000Y-116825000D02*
X138050000Y-116825000D01*
X140450000Y-114425000D02*
X140450000Y-116825000D01*
X138050000Y-114425000D02*
X140450000Y-114425000D01*
X138050000Y-116825000D02*
X138050000Y-114425000D01*
X102630000Y-111480000D02*
X102630000Y-118020000D01*
X105370000Y-118020000D02*
X105370000Y-111480000D01*
X105370000Y-111480000D02*
X102630000Y-111480000D01*
X104000000Y-110710000D02*
X104000000Y-111480000D01*
X102630000Y-118020000D02*
X105370000Y-118020000D01*
X104000000Y-118790000D02*
X104000000Y-118020000D01*
X131120000Y-98770000D02*
X131120000Y-92230000D01*
X129750000Y-99540000D02*
X129750000Y-98770000D01*
X128380000Y-92230000D02*
X128380000Y-98770000D01*
X128380000Y-98770000D02*
X131120000Y-98770000D01*
X131120000Y-92230000D02*
X128380000Y-92230000D01*
X129750000Y-91460000D02*
X129750000Y-92230000D01*
X116745000Y-122940000D02*
X116745000Y-124840000D01*
X127595000Y-122240000D02*
X117245000Y-122240000D01*
X116745000Y-124840000D02*
X116745000Y-124890000D01*
X127595000Y-134840000D02*
X127595000Y-122240000D01*
X117245000Y-123190000D02*
X116745000Y-122940000D01*
X117245000Y-130040000D02*
X116745000Y-129740000D01*
X116745000Y-129740000D02*
X116745000Y-134840000D01*
X116745000Y-124890000D02*
X117245000Y-124640000D01*
X117245000Y-122240000D02*
X117245000Y-123190000D01*
X117245000Y-124640000D02*
X117245000Y-130040000D01*
X116745000Y-134840000D02*
X127595000Y-134840000D01*
X98530000Y-58125000D02*
X98530000Y-67895000D01*
X98530000Y-67895000D02*
X93460000Y-67895000D01*
X98530000Y-58125000D02*
X93460000Y-58125000D01*
X93460000Y-58125000D02*
X93460000Y-67895000D01*
X147950000Y-84175000D02*
X147950000Y-86575000D01*
X145550000Y-86575000D02*
X145550000Y-84175000D01*
X145550000Y-84175000D02*
X147950000Y-84175000D01*
X147950000Y-86575000D02*
X145550000Y-86575000D01*
X136800000Y-124800000D02*
X136800000Y-124850000D01*
X147650000Y-134800000D02*
X147650000Y-122200000D01*
X136800000Y-122900000D02*
X136800000Y-124800000D01*
X137300000Y-124600000D02*
X137300000Y-130000000D01*
X137300000Y-130000000D02*
X136800000Y-129700000D01*
X147650000Y-122200000D02*
X137300000Y-122200000D01*
X137300000Y-122200000D02*
X137300000Y-123150000D01*
X136800000Y-129700000D02*
X136800000Y-134800000D01*
X136800000Y-134800000D02*
X147650000Y-134800000D01*
X137300000Y-123150000D02*
X136800000Y-122900000D01*
X136800000Y-124850000D02*
X137300000Y-124600000D01*
X127270000Y-109420000D02*
X122629000Y-109420000D01*
X127270000Y-116391000D02*
X125760000Y-116391000D01*
X127270000Y-109420000D02*
X127270000Y-119660000D01*
X125760000Y-109420000D02*
X125760000Y-119660000D01*
X127270000Y-119660000D02*
X122629000Y-119660000D01*
X122629000Y-109420000D02*
X122629000Y-119660000D01*
X127270000Y-112690000D02*
X125760000Y-112690000D01*
X93120000Y-92880000D02*
X93120000Y-100120000D01*
X93120000Y-92880000D02*
X90380000Y-92880000D01*
X93120000Y-100120000D02*
X90380000Y-100120000D01*
X90380000Y-92880000D02*
X90380000Y-100120000D01*
%LPC*%
D13*
X132670000Y-54750000D03*
D14*
X142830000Y-54750000D03*
D13*
X147750000Y-55085000D03*
D14*
X147750000Y-65245000D03*
D13*
X136250000Y-58750000D03*
X141250000Y-58750000D03*
D15*
X93000000Y-72000000D03*
D16*
X93000000Y-77000000D03*
X93000000Y-82000000D03*
X93000000Y-87000000D03*
D13*
X118945000Y-109460000D03*
D14*
X118945000Y-119620000D03*
D17*
X141500000Y-63250000D03*
X141500000Y-69750000D03*
X137000000Y-69750000D03*
X137000000Y-63250000D03*
D18*
X111945000Y-112540000D03*
D19*
X111945000Y-113810000D03*
X111945000Y-115080000D03*
D20*
X146750000Y-115375000D03*
D13*
X100000000Y-103830000D03*
D14*
X100000000Y-93670000D03*
D20*
X139250000Y-85375000D03*
D21*
X109500000Y-123500000D03*
D13*
X109500000Y-128500000D03*
D22*
X153750000Y-127250000D03*
D21*
X123610000Y-95050000D03*
D14*
X123610000Y-92510000D03*
X123610000Y-89970000D03*
X123610000Y-87430000D03*
X123610000Y-84890000D03*
X123610000Y-82350000D03*
X123610000Y-79810000D03*
X123610000Y-77270000D03*
X123610000Y-74730000D03*
X123610000Y-72190000D03*
X123610000Y-69650000D03*
X123610000Y-67110000D03*
X123610000Y-64570000D03*
X123610000Y-62030000D03*
X123610000Y-59490000D03*
X108370000Y-59490000D03*
X108370000Y-62030000D03*
X108370000Y-64570000D03*
X108370000Y-67110000D03*
X108370000Y-69650000D03*
X108370000Y-72190000D03*
X108370000Y-74730000D03*
X108370000Y-77270000D03*
X108370000Y-79810000D03*
X108370000Y-82350000D03*
X108370000Y-84890000D03*
X108370000Y-87430000D03*
X108370000Y-89970000D03*
X108370000Y-92510000D03*
X108370000Y-95050000D03*
D22*
X88750000Y-127250000D03*
D15*
X93000000Y-114000000D03*
D16*
X93000000Y-119000000D03*
D13*
X102000000Y-65500000D03*
X102000000Y-60500000D03*
X131750000Y-119620000D03*
D14*
X131750000Y-109460000D03*
D13*
X95750000Y-93750000D03*
D14*
X95750000Y-103910000D03*
D22*
X88000000Y-53000000D03*
D20*
X139250000Y-115625000D03*
D13*
X104000000Y-109670000D03*
D14*
X104000000Y-119830000D03*
D13*
X129750000Y-90420000D03*
D14*
X129750000Y-100580000D03*
D23*
X124945000Y-128540000D03*
D24*
X119945000Y-128540000D03*
D25*
X96000000Y-65550000D03*
X96000000Y-63010000D03*
X96000000Y-60470000D03*
D22*
X153750000Y-52750000D03*
D20*
X146750000Y-85375000D03*
D23*
X145000000Y-128500000D03*
D24*
X140000000Y-128500000D03*
D26*
X124000000Y-112000000D03*
D27*
X124000000Y-114540000D03*
X124000000Y-117080000D03*
D13*
X91750000Y-94000000D03*
X91750000Y-99000000D03*
M02*
