%FSLAX45Y45*%
G04 Gerber Fmt 4.5, Leading zero omitted, Abs format (unit mm)*
G04 Created by KiCad (PCBNEW 6.0.2+dfsg-1) date 2023-09-01 16:32:19*
%MOMM*%
%LPD*%
G01*
G04 APERTURE LIST*
%TA.AperFunction,Profile*%
%ADD10C,0.100000*%
%TD*%
%ADD11C,0.200000*%
%ADD12C,0.075000*%
%ADD13C,0.080000*%
%ADD14C,0.100000*%
%ADD15C,0.110000*%
%ADD16C,0.132000*%
G04 APERTURE END LIST*
D10*
X8300000Y-13800000D02*
X15875000Y-13800000D01*
X15875000Y-13800000D02*
X15875000Y-4675000D01*
X15875000Y-4675000D02*
X8300000Y-4675000D01*
X8300000Y-4675000D02*
X8300000Y-13800000D01*
D11*
D12*
X11157000Y-11216500D02*
X11232000Y-11291500D01*
X11232000Y-11216500D02*
X11157000Y-11291500D01*
X11157000Y-11343500D02*
X11232000Y-11418500D01*
X11232000Y-11343500D02*
X11157000Y-11418500D01*
X11157000Y-11470500D02*
X11232000Y-11545500D01*
X11232000Y-11470500D02*
X11157000Y-11545500D01*
D13*
X9215000Y-9400000D02*
G75*
G03*
X9215000Y-9400000I-40000J0D01*
G01*
X9215000Y-9900000D02*
G75*
G03*
X9215000Y-9900000I-40000J0D01*
G01*
X9615000Y-9375000D02*
G75*
G03*
X9615000Y-9375000I-40000J0D01*
G01*
X9615000Y-10391000D02*
G75*
G03*
X9615000Y-10391000I-40000J0D01*
G01*
X9640000Y-6047000D02*
G75*
G03*
X9640000Y-6047000I-40000J0D01*
G01*
X9640000Y-6301000D02*
G75*
G03*
X9640000Y-6301000I-40000J0D01*
G01*
X9640000Y-6555000D02*
G75*
G03*
X9640000Y-6555000I-40000J0D01*
G01*
X10040000Y-9367000D02*
G75*
G03*
X10040000Y-9367000I-40000J0D01*
G01*
X10040000Y-10383000D02*
G75*
G03*
X10040000Y-10383000I-40000J0D01*
G01*
X10240000Y-6050000D02*
G75*
G03*
X10240000Y-6050000I-40000J0D01*
G01*
X10240000Y-6550000D02*
G75*
G03*
X10240000Y-6550000I-40000J0D01*
G01*
X10440000Y-10967000D02*
G75*
G03*
X10440000Y-10967000I-40000J0D01*
G01*
X10440000Y-11983000D02*
G75*
G03*
X10440000Y-11983000I-40000J0D01*
G01*
X10990000Y-12350000D02*
G75*
G03*
X10990000Y-12350000I-40000J0D01*
G01*
X10990000Y-12850000D02*
G75*
G03*
X10990000Y-12850000I-40000J0D01*
G01*
X11934500Y-10946000D02*
G75*
G03*
X11934500Y-10946000I-40000J0D01*
G01*
X11934500Y-11962000D02*
G75*
G03*
X11934500Y-11962000I-40000J0D01*
G01*
X13015000Y-9042000D02*
G75*
G03*
X13015000Y-9042000I-40000J0D01*
G01*
X13015000Y-10058000D02*
G75*
G03*
X13015000Y-10058000I-40000J0D01*
G01*
X13215000Y-10946000D02*
G75*
G03*
X13215000Y-10946000I-40000J0D01*
G01*
X13215000Y-11962000D02*
G75*
G03*
X13215000Y-11962000I-40000J0D01*
G01*
X13307000Y-5475000D02*
G75*
G03*
X13307000Y-5475000I-40000J0D01*
G01*
X13665000Y-5875000D02*
G75*
G03*
X13665000Y-5875000I-40000J0D01*
G01*
X14165000Y-5875000D02*
G75*
G03*
X14165000Y-5875000I-40000J0D01*
G01*
X14323000Y-5475000D02*
G75*
G03*
X14323000Y-5475000I-40000J0D01*
G01*
X14815000Y-5508500D02*
G75*
G03*
X14815000Y-5508500I-40000J0D01*
G01*
X14815000Y-6524500D02*
G75*
G03*
X14815000Y-6524500I-40000J0D01*
G01*
D14*
X10837000Y-5899000D02*
X10837000Y-5999000D01*
X10787000Y-5949000D02*
X10887000Y-5949000D01*
X10837000Y-6153000D02*
X10837000Y-6253000D01*
X10787000Y-6203000D02*
X10887000Y-6203000D01*
X10837000Y-6407000D02*
X10837000Y-6507000D01*
X10787000Y-6457000D02*
X10887000Y-6457000D01*
X10837000Y-6661000D02*
X10837000Y-6761000D01*
X10787000Y-6711000D02*
X10887000Y-6711000D01*
X10837000Y-6915000D02*
X10837000Y-7015000D01*
X10787000Y-6965000D02*
X10887000Y-6965000D01*
X10837000Y-7169000D02*
X10837000Y-7269000D01*
X10787000Y-7219000D02*
X10887000Y-7219000D01*
X10837000Y-7423000D02*
X10837000Y-7523000D01*
X10787000Y-7473000D02*
X10887000Y-7473000D01*
X10837000Y-7677000D02*
X10837000Y-7777000D01*
X10787000Y-7727000D02*
X10887000Y-7727000D01*
X10837000Y-7931000D02*
X10837000Y-8031000D01*
X10787000Y-7981000D02*
X10887000Y-7981000D01*
X10837000Y-8185000D02*
X10837000Y-8285000D01*
X10787000Y-8235000D02*
X10887000Y-8235000D01*
X10837000Y-8439000D02*
X10837000Y-8539000D01*
X10787000Y-8489000D02*
X10887000Y-8489000D01*
X10837000Y-8693000D02*
X10837000Y-8793000D01*
X10787000Y-8743000D02*
X10887000Y-8743000D01*
X10837000Y-8947000D02*
X10837000Y-9047000D01*
X10787000Y-8997000D02*
X10887000Y-8997000D01*
X10837000Y-9201000D02*
X10837000Y-9301000D01*
X10787000Y-9251000D02*
X10887000Y-9251000D01*
X10837000Y-9455000D02*
X10837000Y-9555000D01*
X10787000Y-9505000D02*
X10887000Y-9505000D01*
X12361000Y-5899000D02*
X12361000Y-5999000D01*
X12311000Y-5949000D02*
X12411000Y-5949000D01*
X12361000Y-6153000D02*
X12361000Y-6253000D01*
X12311000Y-6203000D02*
X12411000Y-6203000D01*
X12361000Y-6407000D02*
X12361000Y-6507000D01*
X12311000Y-6457000D02*
X12411000Y-6457000D01*
X12361000Y-6661000D02*
X12361000Y-6761000D01*
X12311000Y-6711000D02*
X12411000Y-6711000D01*
X12361000Y-6915000D02*
X12361000Y-7015000D01*
X12311000Y-6965000D02*
X12411000Y-6965000D01*
X12361000Y-7169000D02*
X12361000Y-7269000D01*
X12311000Y-7219000D02*
X12411000Y-7219000D01*
X12361000Y-7423000D02*
X12361000Y-7523000D01*
X12311000Y-7473000D02*
X12411000Y-7473000D01*
X12361000Y-7677000D02*
X12361000Y-7777000D01*
X12311000Y-7727000D02*
X12411000Y-7727000D01*
X12361000Y-7931000D02*
X12361000Y-8031000D01*
X12311000Y-7981000D02*
X12411000Y-7981000D01*
X12361000Y-8185000D02*
X12361000Y-8285000D01*
X12311000Y-8235000D02*
X12411000Y-8235000D01*
X12361000Y-8439000D02*
X12361000Y-8539000D01*
X12311000Y-8489000D02*
X12411000Y-8489000D01*
X12361000Y-8693000D02*
X12361000Y-8793000D01*
X12311000Y-8743000D02*
X12411000Y-8743000D01*
X12361000Y-8947000D02*
X12361000Y-9047000D01*
X12311000Y-8997000D02*
X12411000Y-8997000D01*
X12361000Y-9201000D02*
X12361000Y-9301000D01*
X12311000Y-9251000D02*
X12411000Y-9251000D01*
X12361000Y-9455000D02*
X12361000Y-9555000D01*
X12311000Y-9505000D02*
X12411000Y-9505000D01*
X13925000Y-8487500D02*
X13925000Y-8587500D01*
X13875000Y-8537500D02*
X13975000Y-8537500D01*
X13925000Y-11512500D02*
X13925000Y-11612500D01*
X13875000Y-11562500D02*
X13975000Y-11562500D01*
X14675000Y-8487500D02*
X14675000Y-8587500D01*
X14625000Y-8537500D02*
X14725000Y-8537500D01*
X14675000Y-11487500D02*
X14675000Y-11587500D01*
X14625000Y-11537500D02*
X14725000Y-11537500D01*
D15*
X12438891Y-11238891D02*
X12438891Y-11161109D01*
X12361109Y-11161109D01*
X12361109Y-11238891D01*
X12438891Y-11238891D01*
X12438891Y-11492891D02*
X12438891Y-11415109D01*
X12361109Y-11415109D01*
X12361109Y-11492891D01*
X12438891Y-11492891D01*
X12438891Y-11746891D02*
X12438891Y-11669109D01*
X12361109Y-11669109D01*
X12361109Y-11746891D01*
X12438891Y-11746891D01*
X13738891Y-6363891D02*
X13738891Y-6286109D01*
X13661109Y-6286109D01*
X13661109Y-6363891D01*
X13738891Y-6363891D01*
X13738891Y-7013891D02*
X13738891Y-6936109D01*
X13661109Y-6936109D01*
X13661109Y-7013891D01*
X13738891Y-7013891D01*
X14188891Y-6363891D02*
X14188891Y-6286109D01*
X14111109Y-6286109D01*
X14111109Y-6363891D01*
X14188891Y-6363891D01*
X14188891Y-7013891D02*
X14188891Y-6936109D01*
X14111109Y-6936109D01*
X14111109Y-7013891D01*
X14188891Y-7013891D01*
D16*
X9300000Y-7266000D02*
X9366000Y-7200000D01*
X9300000Y-7134000D01*
X9234000Y-7200000D01*
X9300000Y-7266000D01*
X9300000Y-7766000D02*
X9366000Y-7700000D01*
X9300000Y-7634000D01*
X9234000Y-7700000D01*
X9300000Y-7766000D01*
X9300000Y-8266000D02*
X9366000Y-8200000D01*
X9300000Y-8134000D01*
X9234000Y-8200000D01*
X9300000Y-8266000D01*
X9300000Y-8766000D02*
X9366000Y-8700000D01*
X9300000Y-8634000D01*
X9234000Y-8700000D01*
X9300000Y-8766000D01*
X9300000Y-11466000D02*
X9366000Y-11400000D01*
X9300000Y-11334000D01*
X9234000Y-11400000D01*
X9300000Y-11466000D01*
X9300000Y-11966000D02*
X9366000Y-11900000D01*
X9300000Y-11834000D01*
X9234000Y-11900000D01*
X9300000Y-11966000D01*
X11994500Y-12920000D02*
X12060500Y-12854000D01*
X11994500Y-12788000D01*
X11928500Y-12854000D01*
X11994500Y-12920000D01*
X12494500Y-12920000D02*
X12560500Y-12854000D01*
X12494500Y-12788000D01*
X12428500Y-12854000D01*
X12494500Y-12920000D01*
X14000000Y-12916000D02*
X14066000Y-12850000D01*
X14000000Y-12784000D01*
X13934000Y-12850000D01*
X14000000Y-12916000D01*
X14500000Y-12916000D02*
X14566000Y-12850000D01*
X14500000Y-12784000D01*
X14434000Y-12850000D01*
X14500000Y-12916000D01*
D11*
X8552619Y-14115476D02*
X8552619Y-13915476D01*
X8600238Y-13915476D01*
X8628810Y-13925000D01*
X8647857Y-13944048D01*
X8657381Y-13963095D01*
X8666905Y-14001190D01*
X8666905Y-14029762D01*
X8657381Y-14067857D01*
X8647857Y-14086905D01*
X8628810Y-14105952D01*
X8600238Y-14115476D01*
X8552619Y-14115476D01*
X8752619Y-14115476D02*
X8752619Y-13982143D01*
X8752619Y-14020238D02*
X8762143Y-14001190D01*
X8771667Y-13991667D01*
X8790714Y-13982143D01*
X8809762Y-13982143D01*
X8876429Y-14115476D02*
X8876429Y-13982143D01*
X8876429Y-13915476D02*
X8866905Y-13925000D01*
X8876429Y-13934524D01*
X8885952Y-13925000D01*
X8876429Y-13915476D01*
X8876429Y-13934524D01*
X9000238Y-14115476D02*
X8981190Y-14105952D01*
X8971667Y-14086905D01*
X8971667Y-13915476D01*
X9105000Y-14115476D02*
X9085952Y-14105952D01*
X9076429Y-14086905D01*
X9076429Y-13915476D01*
X9333571Y-14115476D02*
X9333571Y-13915476D01*
X9400238Y-14058333D01*
X9466905Y-13915476D01*
X9466905Y-14115476D01*
X9647857Y-14115476D02*
X9647857Y-14010714D01*
X9638333Y-13991667D01*
X9619286Y-13982143D01*
X9581190Y-13982143D01*
X9562143Y-13991667D01*
X9647857Y-14105952D02*
X9628810Y-14115476D01*
X9581190Y-14115476D01*
X9562143Y-14105952D01*
X9552619Y-14086905D01*
X9552619Y-14067857D01*
X9562143Y-14048809D01*
X9581190Y-14039286D01*
X9628810Y-14039286D01*
X9647857Y-14029762D01*
X9743095Y-13982143D02*
X9743095Y-14182143D01*
X9743095Y-13991667D02*
X9762143Y-13982143D01*
X9800238Y-13982143D01*
X9819286Y-13991667D01*
X9828810Y-14001190D01*
X9838333Y-14020238D01*
X9838333Y-14077381D01*
X9828810Y-14096428D01*
X9819286Y-14105952D01*
X9800238Y-14115476D01*
X9762143Y-14115476D01*
X9743095Y-14105952D01*
X9924048Y-14096428D02*
X9933571Y-14105952D01*
X9924048Y-14115476D01*
X9914524Y-14105952D01*
X9924048Y-14096428D01*
X9924048Y-14115476D01*
X9924048Y-13991667D02*
X9933571Y-14001190D01*
X9924048Y-14010714D01*
X9914524Y-14001190D01*
X9924048Y-13991667D01*
X9924048Y-14010714D01*
D12*
X8220000Y-14407500D02*
X8295000Y-14482500D01*
X8295000Y-14407500D02*
X8220000Y-14482500D01*
D11*
X8590714Y-14335476D02*
X8609762Y-14335476D01*
X8628810Y-14345000D01*
X8638333Y-14354524D01*
X8647857Y-14373571D01*
X8657381Y-14411667D01*
X8657381Y-14459286D01*
X8647857Y-14497381D01*
X8638333Y-14516428D01*
X8628810Y-14525952D01*
X8609762Y-14535476D01*
X8590714Y-14535476D01*
X8571667Y-14525952D01*
X8562143Y-14516428D01*
X8552619Y-14497381D01*
X8543095Y-14459286D01*
X8543095Y-14411667D01*
X8552619Y-14373571D01*
X8562143Y-14354524D01*
X8571667Y-14345000D01*
X8590714Y-14335476D01*
X8743095Y-14516428D02*
X8752619Y-14525952D01*
X8743095Y-14535476D01*
X8733571Y-14525952D01*
X8743095Y-14516428D01*
X8743095Y-14535476D01*
X8819286Y-14335476D02*
X8952619Y-14335476D01*
X8866905Y-14535476D01*
X9124048Y-14335476D02*
X9028810Y-14335476D01*
X9019286Y-14430714D01*
X9028810Y-14421190D01*
X9047857Y-14411667D01*
X9095476Y-14411667D01*
X9114524Y-14421190D01*
X9124048Y-14430714D01*
X9133571Y-14449762D01*
X9133571Y-14497381D01*
X9124048Y-14516428D01*
X9114524Y-14525952D01*
X9095476Y-14535476D01*
X9047857Y-14535476D01*
X9028810Y-14525952D01*
X9019286Y-14516428D01*
X9257381Y-14335476D02*
X9276429Y-14335476D01*
X9295476Y-14345000D01*
X9305000Y-14354524D01*
X9314524Y-14373571D01*
X9324048Y-14411667D01*
X9324048Y-14459286D01*
X9314524Y-14497381D01*
X9305000Y-14516428D01*
X9295476Y-14525952D01*
X9276429Y-14535476D01*
X9257381Y-14535476D01*
X9238333Y-14525952D01*
X9228810Y-14516428D01*
X9219286Y-14497381D01*
X9209762Y-14459286D01*
X9209762Y-14411667D01*
X9219286Y-14373571D01*
X9228810Y-14354524D01*
X9238333Y-14345000D01*
X9257381Y-14335476D01*
X9409762Y-14535476D02*
X9409762Y-14402143D01*
X9409762Y-14421190D02*
X9419286Y-14411667D01*
X9438333Y-14402143D01*
X9466905Y-14402143D01*
X9485952Y-14411667D01*
X9495476Y-14430714D01*
X9495476Y-14535476D01*
X9495476Y-14430714D02*
X9505000Y-14411667D01*
X9524048Y-14402143D01*
X9552619Y-14402143D01*
X9571667Y-14411667D01*
X9581190Y-14430714D01*
X9581190Y-14535476D01*
X9676429Y-14535476D02*
X9676429Y-14402143D01*
X9676429Y-14421190D02*
X9685952Y-14411667D01*
X9705000Y-14402143D01*
X9733571Y-14402143D01*
X9752619Y-14411667D01*
X9762143Y-14430714D01*
X9762143Y-14535476D01*
X9762143Y-14430714D02*
X9771667Y-14411667D01*
X9790714Y-14402143D01*
X9819286Y-14402143D01*
X9838333Y-14411667D01*
X9847857Y-14430714D01*
X9847857Y-14535476D01*
X10238333Y-14325952D02*
X10066905Y-14583095D01*
X10495476Y-14335476D02*
X10514524Y-14335476D01*
X10533571Y-14345000D01*
X10543095Y-14354524D01*
X10552619Y-14373571D01*
X10562143Y-14411667D01*
X10562143Y-14459286D01*
X10552619Y-14497381D01*
X10543095Y-14516428D01*
X10533571Y-14525952D01*
X10514524Y-14535476D01*
X10495476Y-14535476D01*
X10476429Y-14525952D01*
X10466905Y-14516428D01*
X10457381Y-14497381D01*
X10447857Y-14459286D01*
X10447857Y-14411667D01*
X10457381Y-14373571D01*
X10466905Y-14354524D01*
X10476429Y-14345000D01*
X10495476Y-14335476D01*
X10647857Y-14516428D02*
X10657381Y-14525952D01*
X10647857Y-14535476D01*
X10638333Y-14525952D01*
X10647857Y-14516428D01*
X10647857Y-14535476D01*
X10781190Y-14335476D02*
X10800238Y-14335476D01*
X10819286Y-14345000D01*
X10828810Y-14354524D01*
X10838333Y-14373571D01*
X10847857Y-14411667D01*
X10847857Y-14459286D01*
X10838333Y-14497381D01*
X10828810Y-14516428D01*
X10819286Y-14525952D01*
X10800238Y-14535476D01*
X10781190Y-14535476D01*
X10762143Y-14525952D01*
X10752619Y-14516428D01*
X10743095Y-14497381D01*
X10733571Y-14459286D01*
X10733571Y-14411667D01*
X10743095Y-14373571D01*
X10752619Y-14354524D01*
X10762143Y-14345000D01*
X10781190Y-14335476D01*
X10924048Y-14354524D02*
X10933571Y-14345000D01*
X10952619Y-14335476D01*
X11000238Y-14335476D01*
X11019286Y-14345000D01*
X11028810Y-14354524D01*
X11038333Y-14373571D01*
X11038333Y-14392619D01*
X11028810Y-14421190D01*
X10914524Y-14535476D01*
X11038333Y-14535476D01*
X11133571Y-14535476D02*
X11171667Y-14535476D01*
X11190714Y-14525952D01*
X11200238Y-14516428D01*
X11219286Y-14487857D01*
X11228809Y-14449762D01*
X11228809Y-14373571D01*
X11219286Y-14354524D01*
X11209762Y-14345000D01*
X11190714Y-14335476D01*
X11152619Y-14335476D01*
X11133571Y-14345000D01*
X11124048Y-14354524D01*
X11114524Y-14373571D01*
X11114524Y-14421190D01*
X11124048Y-14440238D01*
X11133571Y-14449762D01*
X11152619Y-14459286D01*
X11190714Y-14459286D01*
X11209762Y-14449762D01*
X11219286Y-14440238D01*
X11228809Y-14421190D01*
X11409762Y-14335476D02*
X11314524Y-14335476D01*
X11305000Y-14430714D01*
X11314524Y-14421190D01*
X11333571Y-14411667D01*
X11381190Y-14411667D01*
X11400238Y-14421190D01*
X11409762Y-14430714D01*
X11419286Y-14449762D01*
X11419286Y-14497381D01*
X11409762Y-14516428D01*
X11400238Y-14525952D01*
X11381190Y-14535476D01*
X11333571Y-14535476D01*
X11314524Y-14525952D01*
X11305000Y-14516428D01*
X11495476Y-14335476D02*
X11495476Y-14373571D01*
X11571667Y-14335476D02*
X11571667Y-14373571D01*
X11866905Y-14611667D02*
X11857381Y-14602143D01*
X11838333Y-14573571D01*
X11828809Y-14554524D01*
X11819286Y-14525952D01*
X11809762Y-14478333D01*
X11809762Y-14440238D01*
X11819286Y-14392619D01*
X11828809Y-14364048D01*
X11838333Y-14345000D01*
X11857381Y-14316428D01*
X11866905Y-14306905D01*
X11924048Y-14335476D02*
X12047857Y-14335476D01*
X11981190Y-14411667D01*
X12009762Y-14411667D01*
X12028809Y-14421190D01*
X12038333Y-14430714D01*
X12047857Y-14449762D01*
X12047857Y-14497381D01*
X12038333Y-14516428D01*
X12028809Y-14525952D01*
X12009762Y-14535476D01*
X11952619Y-14535476D01*
X11933571Y-14525952D01*
X11924048Y-14516428D01*
X12285952Y-14535476D02*
X12285952Y-14335476D01*
X12371667Y-14535476D02*
X12371667Y-14430714D01*
X12362143Y-14411667D01*
X12343095Y-14402143D01*
X12314524Y-14402143D01*
X12295476Y-14411667D01*
X12285952Y-14421190D01*
X12495476Y-14535476D02*
X12476428Y-14525952D01*
X12466905Y-14516428D01*
X12457381Y-14497381D01*
X12457381Y-14440238D01*
X12466905Y-14421190D01*
X12476428Y-14411667D01*
X12495476Y-14402143D01*
X12524048Y-14402143D01*
X12543095Y-14411667D01*
X12552619Y-14421190D01*
X12562143Y-14440238D01*
X12562143Y-14497381D01*
X12552619Y-14516428D01*
X12543095Y-14525952D01*
X12524048Y-14535476D01*
X12495476Y-14535476D01*
X12676428Y-14535476D02*
X12657381Y-14525952D01*
X12647857Y-14506905D01*
X12647857Y-14335476D01*
X12828809Y-14525952D02*
X12809762Y-14535476D01*
X12771667Y-14535476D01*
X12752619Y-14525952D01*
X12743095Y-14506905D01*
X12743095Y-14430714D01*
X12752619Y-14411667D01*
X12771667Y-14402143D01*
X12809762Y-14402143D01*
X12828809Y-14411667D01*
X12838333Y-14430714D01*
X12838333Y-14449762D01*
X12743095Y-14468809D01*
X12914524Y-14525952D02*
X12933571Y-14535476D01*
X12971667Y-14535476D01*
X12990714Y-14525952D01*
X13000238Y-14506905D01*
X13000238Y-14497381D01*
X12990714Y-14478333D01*
X12971667Y-14468809D01*
X12943095Y-14468809D01*
X12924048Y-14459286D01*
X12914524Y-14440238D01*
X12914524Y-14430714D01*
X12924048Y-14411667D01*
X12943095Y-14402143D01*
X12971667Y-14402143D01*
X12990714Y-14411667D01*
X13066905Y-14611667D02*
X13076428Y-14602143D01*
X13095476Y-14573571D01*
X13105000Y-14554524D01*
X13114524Y-14525952D01*
X13124048Y-14478333D01*
X13124048Y-14440238D01*
X13114524Y-14392619D01*
X13105000Y-14364048D01*
X13095476Y-14345000D01*
X13076428Y-14316428D01*
X13066905Y-14306905D01*
D13*
X8295000Y-14709000D02*
G75*
G03*
X8295000Y-14709000I-40000J0D01*
G01*
D11*
X8590714Y-14599476D02*
X8609762Y-14599476D01*
X8628810Y-14609000D01*
X8638333Y-14618524D01*
X8647857Y-14637571D01*
X8657381Y-14675667D01*
X8657381Y-14723286D01*
X8647857Y-14761381D01*
X8638333Y-14780428D01*
X8628810Y-14789952D01*
X8609762Y-14799476D01*
X8590714Y-14799476D01*
X8571667Y-14789952D01*
X8562143Y-14780428D01*
X8552619Y-14761381D01*
X8543095Y-14723286D01*
X8543095Y-14675667D01*
X8552619Y-14637571D01*
X8562143Y-14618524D01*
X8571667Y-14609000D01*
X8590714Y-14599476D01*
X8743095Y-14780428D02*
X8752619Y-14789952D01*
X8743095Y-14799476D01*
X8733571Y-14789952D01*
X8743095Y-14780428D01*
X8743095Y-14799476D01*
X8866905Y-14685190D02*
X8847857Y-14675667D01*
X8838333Y-14666143D01*
X8828810Y-14647095D01*
X8828810Y-14637571D01*
X8838333Y-14618524D01*
X8847857Y-14609000D01*
X8866905Y-14599476D01*
X8905000Y-14599476D01*
X8924048Y-14609000D01*
X8933571Y-14618524D01*
X8943095Y-14637571D01*
X8943095Y-14647095D01*
X8933571Y-14666143D01*
X8924048Y-14675667D01*
X8905000Y-14685190D01*
X8866905Y-14685190D01*
X8847857Y-14694714D01*
X8838333Y-14704238D01*
X8828810Y-14723286D01*
X8828810Y-14761381D01*
X8838333Y-14780428D01*
X8847857Y-14789952D01*
X8866905Y-14799476D01*
X8905000Y-14799476D01*
X8924048Y-14789952D01*
X8933571Y-14780428D01*
X8943095Y-14761381D01*
X8943095Y-14723286D01*
X8933571Y-14704238D01*
X8924048Y-14694714D01*
X8905000Y-14685190D01*
X9066905Y-14599476D02*
X9085952Y-14599476D01*
X9105000Y-14609000D01*
X9114524Y-14618524D01*
X9124048Y-14637571D01*
X9133571Y-14675667D01*
X9133571Y-14723286D01*
X9124048Y-14761381D01*
X9114524Y-14780428D01*
X9105000Y-14789952D01*
X9085952Y-14799476D01*
X9066905Y-14799476D01*
X9047857Y-14789952D01*
X9038333Y-14780428D01*
X9028810Y-14761381D01*
X9019286Y-14723286D01*
X9019286Y-14675667D01*
X9028810Y-14637571D01*
X9038333Y-14618524D01*
X9047857Y-14609000D01*
X9066905Y-14599476D01*
X9257381Y-14599476D02*
X9276429Y-14599476D01*
X9295476Y-14609000D01*
X9305000Y-14618524D01*
X9314524Y-14637571D01*
X9324048Y-14675667D01*
X9324048Y-14723286D01*
X9314524Y-14761381D01*
X9305000Y-14780428D01*
X9295476Y-14789952D01*
X9276429Y-14799476D01*
X9257381Y-14799476D01*
X9238333Y-14789952D01*
X9228810Y-14780428D01*
X9219286Y-14761381D01*
X9209762Y-14723286D01*
X9209762Y-14675667D01*
X9219286Y-14637571D01*
X9228810Y-14618524D01*
X9238333Y-14609000D01*
X9257381Y-14599476D01*
X9409762Y-14799476D02*
X9409762Y-14666143D01*
X9409762Y-14685190D02*
X9419286Y-14675667D01*
X9438333Y-14666143D01*
X9466905Y-14666143D01*
X9485952Y-14675667D01*
X9495476Y-14694714D01*
X9495476Y-14799476D01*
X9495476Y-14694714D02*
X9505000Y-14675667D01*
X9524048Y-14666143D01*
X9552619Y-14666143D01*
X9571667Y-14675667D01*
X9581190Y-14694714D01*
X9581190Y-14799476D01*
X9676429Y-14799476D02*
X9676429Y-14666143D01*
X9676429Y-14685190D02*
X9685952Y-14675667D01*
X9705000Y-14666143D01*
X9733571Y-14666143D01*
X9752619Y-14675667D01*
X9762143Y-14694714D01*
X9762143Y-14799476D01*
X9762143Y-14694714D02*
X9771667Y-14675667D01*
X9790714Y-14666143D01*
X9819286Y-14666143D01*
X9838333Y-14675667D01*
X9847857Y-14694714D01*
X9847857Y-14799476D01*
X10238333Y-14589952D02*
X10066905Y-14847095D01*
X10495476Y-14599476D02*
X10514524Y-14599476D01*
X10533571Y-14609000D01*
X10543095Y-14618524D01*
X10552619Y-14637571D01*
X10562143Y-14675667D01*
X10562143Y-14723286D01*
X10552619Y-14761381D01*
X10543095Y-14780428D01*
X10533571Y-14789952D01*
X10514524Y-14799476D01*
X10495476Y-14799476D01*
X10476429Y-14789952D01*
X10466905Y-14780428D01*
X10457381Y-14761381D01*
X10447857Y-14723286D01*
X10447857Y-14675667D01*
X10457381Y-14637571D01*
X10466905Y-14618524D01*
X10476429Y-14609000D01*
X10495476Y-14599476D01*
X10647857Y-14780428D02*
X10657381Y-14789952D01*
X10647857Y-14799476D01*
X10638333Y-14789952D01*
X10647857Y-14780428D01*
X10647857Y-14799476D01*
X10781190Y-14599476D02*
X10800238Y-14599476D01*
X10819286Y-14609000D01*
X10828810Y-14618524D01*
X10838333Y-14637571D01*
X10847857Y-14675667D01*
X10847857Y-14723286D01*
X10838333Y-14761381D01*
X10828810Y-14780428D01*
X10819286Y-14789952D01*
X10800238Y-14799476D01*
X10781190Y-14799476D01*
X10762143Y-14789952D01*
X10752619Y-14780428D01*
X10743095Y-14761381D01*
X10733571Y-14723286D01*
X10733571Y-14675667D01*
X10743095Y-14637571D01*
X10752619Y-14618524D01*
X10762143Y-14609000D01*
X10781190Y-14599476D01*
X10914524Y-14599476D02*
X11038333Y-14599476D01*
X10971667Y-14675667D01*
X11000238Y-14675667D01*
X11019286Y-14685190D01*
X11028810Y-14694714D01*
X11038333Y-14713762D01*
X11038333Y-14761381D01*
X11028810Y-14780428D01*
X11019286Y-14789952D01*
X11000238Y-14799476D01*
X10943095Y-14799476D01*
X10924048Y-14789952D01*
X10914524Y-14780428D01*
X11228809Y-14799476D02*
X11114524Y-14799476D01*
X11171667Y-14799476D02*
X11171667Y-14599476D01*
X11152619Y-14628048D01*
X11133571Y-14647095D01*
X11114524Y-14656619D01*
X11409762Y-14599476D02*
X11314524Y-14599476D01*
X11305000Y-14694714D01*
X11314524Y-14685190D01*
X11333571Y-14675667D01*
X11381190Y-14675667D01*
X11400238Y-14685190D01*
X11409762Y-14694714D01*
X11419286Y-14713762D01*
X11419286Y-14761381D01*
X11409762Y-14780428D01*
X11400238Y-14789952D01*
X11381190Y-14799476D01*
X11333571Y-14799476D01*
X11314524Y-14789952D01*
X11305000Y-14780428D01*
X11495476Y-14599476D02*
X11495476Y-14637571D01*
X11571667Y-14599476D02*
X11571667Y-14637571D01*
X11866905Y-14875667D02*
X11857381Y-14866143D01*
X11838333Y-14837571D01*
X11828809Y-14818524D01*
X11819286Y-14789952D01*
X11809762Y-14742333D01*
X11809762Y-14704238D01*
X11819286Y-14656619D01*
X11828809Y-14628048D01*
X11838333Y-14609000D01*
X11857381Y-14580428D01*
X11866905Y-14570905D01*
X11933571Y-14618524D02*
X11943095Y-14609000D01*
X11962143Y-14599476D01*
X12009762Y-14599476D01*
X12028809Y-14609000D01*
X12038333Y-14618524D01*
X12047857Y-14637571D01*
X12047857Y-14656619D01*
X12038333Y-14685190D01*
X11924048Y-14799476D01*
X12047857Y-14799476D01*
X12114524Y-14599476D02*
X12247857Y-14599476D01*
X12162143Y-14799476D01*
X12476428Y-14799476D02*
X12476428Y-14599476D01*
X12562143Y-14799476D02*
X12562143Y-14694714D01*
X12552619Y-14675667D01*
X12533571Y-14666143D01*
X12505000Y-14666143D01*
X12485952Y-14675667D01*
X12476428Y-14685190D01*
X12685952Y-14799476D02*
X12666905Y-14789952D01*
X12657381Y-14780428D01*
X12647857Y-14761381D01*
X12647857Y-14704238D01*
X12657381Y-14685190D01*
X12666905Y-14675667D01*
X12685952Y-14666143D01*
X12714524Y-14666143D01*
X12733571Y-14675667D01*
X12743095Y-14685190D01*
X12752619Y-14704238D01*
X12752619Y-14761381D01*
X12743095Y-14780428D01*
X12733571Y-14789952D01*
X12714524Y-14799476D01*
X12685952Y-14799476D01*
X12866905Y-14799476D02*
X12847857Y-14789952D01*
X12838333Y-14770905D01*
X12838333Y-14599476D01*
X13019286Y-14789952D02*
X13000238Y-14799476D01*
X12962143Y-14799476D01*
X12943095Y-14789952D01*
X12933571Y-14770905D01*
X12933571Y-14694714D01*
X12943095Y-14675667D01*
X12962143Y-14666143D01*
X13000238Y-14666143D01*
X13019286Y-14675667D01*
X13028809Y-14694714D01*
X13028809Y-14713762D01*
X12933571Y-14732809D01*
X13105000Y-14789952D02*
X13124048Y-14799476D01*
X13162143Y-14799476D01*
X13181190Y-14789952D01*
X13190714Y-14770905D01*
X13190714Y-14761381D01*
X13181190Y-14742333D01*
X13162143Y-14732809D01*
X13133571Y-14732809D01*
X13114524Y-14723286D01*
X13105000Y-14704238D01*
X13105000Y-14694714D01*
X13114524Y-14675667D01*
X13133571Y-14666143D01*
X13162143Y-14666143D01*
X13181190Y-14675667D01*
X13257381Y-14875667D02*
X13266905Y-14866143D01*
X13285952Y-14837571D01*
X13295476Y-14818524D01*
X13305000Y-14789952D01*
X13314524Y-14742333D01*
X13314524Y-14704238D01*
X13305000Y-14656619D01*
X13295476Y-14628048D01*
X13285952Y-14609000D01*
X13266905Y-14580428D01*
X13257381Y-14570905D01*
D14*
X8245000Y-14923000D02*
X8245000Y-15023000D01*
X8195000Y-14973000D02*
X8295000Y-14973000D01*
D11*
X8657381Y-15063476D02*
X8543095Y-15063476D01*
X8600238Y-15063476D02*
X8600238Y-14863476D01*
X8581190Y-14892048D01*
X8562143Y-14911095D01*
X8543095Y-14920619D01*
X8743095Y-15044428D02*
X8752619Y-15053952D01*
X8743095Y-15063476D01*
X8733571Y-15053952D01*
X8743095Y-15044428D01*
X8743095Y-15063476D01*
X8876429Y-14863476D02*
X8895476Y-14863476D01*
X8914524Y-14873000D01*
X8924048Y-14882524D01*
X8933571Y-14901571D01*
X8943095Y-14939667D01*
X8943095Y-14987286D01*
X8933571Y-15025381D01*
X8924048Y-15044428D01*
X8914524Y-15053952D01*
X8895476Y-15063476D01*
X8876429Y-15063476D01*
X8857381Y-15053952D01*
X8847857Y-15044428D01*
X8838333Y-15025381D01*
X8828810Y-14987286D01*
X8828810Y-14939667D01*
X8838333Y-14901571D01*
X8847857Y-14882524D01*
X8857381Y-14873000D01*
X8876429Y-14863476D01*
X9066905Y-14863476D02*
X9085952Y-14863476D01*
X9105000Y-14873000D01*
X9114524Y-14882524D01*
X9124048Y-14901571D01*
X9133571Y-14939667D01*
X9133571Y-14987286D01*
X9124048Y-15025381D01*
X9114524Y-15044428D01*
X9105000Y-15053952D01*
X9085952Y-15063476D01*
X9066905Y-15063476D01*
X9047857Y-15053952D01*
X9038333Y-15044428D01*
X9028810Y-15025381D01*
X9019286Y-14987286D01*
X9019286Y-14939667D01*
X9028810Y-14901571D01*
X9038333Y-14882524D01*
X9047857Y-14873000D01*
X9066905Y-14863476D01*
X9257381Y-14863476D02*
X9276429Y-14863476D01*
X9295476Y-14873000D01*
X9305000Y-14882524D01*
X9314524Y-14901571D01*
X9324048Y-14939667D01*
X9324048Y-14987286D01*
X9314524Y-15025381D01*
X9305000Y-15044428D01*
X9295476Y-15053952D01*
X9276429Y-15063476D01*
X9257381Y-15063476D01*
X9238333Y-15053952D01*
X9228810Y-15044428D01*
X9219286Y-15025381D01*
X9209762Y-14987286D01*
X9209762Y-14939667D01*
X9219286Y-14901571D01*
X9228810Y-14882524D01*
X9238333Y-14873000D01*
X9257381Y-14863476D01*
X9409762Y-15063476D02*
X9409762Y-14930143D01*
X9409762Y-14949190D02*
X9419286Y-14939667D01*
X9438333Y-14930143D01*
X9466905Y-14930143D01*
X9485952Y-14939667D01*
X9495476Y-14958714D01*
X9495476Y-15063476D01*
X9495476Y-14958714D02*
X9505000Y-14939667D01*
X9524048Y-14930143D01*
X9552619Y-14930143D01*
X9571667Y-14939667D01*
X9581190Y-14958714D01*
X9581190Y-15063476D01*
X9676429Y-15063476D02*
X9676429Y-14930143D01*
X9676429Y-14949190D02*
X9685952Y-14939667D01*
X9705000Y-14930143D01*
X9733571Y-14930143D01*
X9752619Y-14939667D01*
X9762143Y-14958714D01*
X9762143Y-15063476D01*
X9762143Y-14958714D02*
X9771667Y-14939667D01*
X9790714Y-14930143D01*
X9819286Y-14930143D01*
X9838333Y-14939667D01*
X9847857Y-14958714D01*
X9847857Y-15063476D01*
X10238333Y-14853952D02*
X10066905Y-15111095D01*
X10495476Y-14863476D02*
X10514524Y-14863476D01*
X10533571Y-14873000D01*
X10543095Y-14882524D01*
X10552619Y-14901571D01*
X10562143Y-14939667D01*
X10562143Y-14987286D01*
X10552619Y-15025381D01*
X10543095Y-15044428D01*
X10533571Y-15053952D01*
X10514524Y-15063476D01*
X10495476Y-15063476D01*
X10476429Y-15053952D01*
X10466905Y-15044428D01*
X10457381Y-15025381D01*
X10447857Y-14987286D01*
X10447857Y-14939667D01*
X10457381Y-14901571D01*
X10466905Y-14882524D01*
X10476429Y-14873000D01*
X10495476Y-14863476D01*
X10647857Y-15044428D02*
X10657381Y-15053952D01*
X10647857Y-15063476D01*
X10638333Y-15053952D01*
X10647857Y-15044428D01*
X10647857Y-15063476D01*
X10781190Y-14863476D02*
X10800238Y-14863476D01*
X10819286Y-14873000D01*
X10828810Y-14882524D01*
X10838333Y-14901571D01*
X10847857Y-14939667D01*
X10847857Y-14987286D01*
X10838333Y-15025381D01*
X10828810Y-15044428D01*
X10819286Y-15053952D01*
X10800238Y-15063476D01*
X10781190Y-15063476D01*
X10762143Y-15053952D01*
X10752619Y-15044428D01*
X10743095Y-15025381D01*
X10733571Y-14987286D01*
X10733571Y-14939667D01*
X10743095Y-14901571D01*
X10752619Y-14882524D01*
X10762143Y-14873000D01*
X10781190Y-14863476D01*
X10914524Y-14863476D02*
X11038333Y-14863476D01*
X10971667Y-14939667D01*
X11000238Y-14939667D01*
X11019286Y-14949190D01*
X11028810Y-14958714D01*
X11038333Y-14977762D01*
X11038333Y-15025381D01*
X11028810Y-15044428D01*
X11019286Y-15053952D01*
X11000238Y-15063476D01*
X10943095Y-15063476D01*
X10924048Y-15053952D01*
X10914524Y-15044428D01*
X11133571Y-15063476D02*
X11171667Y-15063476D01*
X11190714Y-15053952D01*
X11200238Y-15044428D01*
X11219286Y-15015857D01*
X11228809Y-14977762D01*
X11228809Y-14901571D01*
X11219286Y-14882524D01*
X11209762Y-14873000D01*
X11190714Y-14863476D01*
X11152619Y-14863476D01*
X11133571Y-14873000D01*
X11124048Y-14882524D01*
X11114524Y-14901571D01*
X11114524Y-14949190D01*
X11124048Y-14968238D01*
X11133571Y-14977762D01*
X11152619Y-14987286D01*
X11190714Y-14987286D01*
X11209762Y-14977762D01*
X11219286Y-14968238D01*
X11228809Y-14949190D01*
X11400238Y-14930143D02*
X11400238Y-15063476D01*
X11352619Y-14853952D02*
X11305000Y-14996809D01*
X11428809Y-14996809D01*
X11495476Y-14863476D02*
X11495476Y-14901571D01*
X11571667Y-14863476D02*
X11571667Y-14901571D01*
X11866905Y-15139667D02*
X11857381Y-15130143D01*
X11838333Y-15101571D01*
X11828809Y-15082524D01*
X11819286Y-15053952D01*
X11809762Y-15006333D01*
X11809762Y-14968238D01*
X11819286Y-14920619D01*
X11828809Y-14892048D01*
X11838333Y-14873000D01*
X11857381Y-14844428D01*
X11866905Y-14834905D01*
X11924048Y-14863476D02*
X12047857Y-14863476D01*
X11981190Y-14939667D01*
X12009762Y-14939667D01*
X12028809Y-14949190D01*
X12038333Y-14958714D01*
X12047857Y-14977762D01*
X12047857Y-15025381D01*
X12038333Y-15044428D01*
X12028809Y-15053952D01*
X12009762Y-15063476D01*
X11952619Y-15063476D01*
X11933571Y-15053952D01*
X11924048Y-15044428D01*
X12219286Y-14930143D02*
X12219286Y-15063476D01*
X12171667Y-14853952D02*
X12124048Y-14996809D01*
X12247857Y-14996809D01*
X12476428Y-15063476D02*
X12476428Y-14863476D01*
X12562143Y-15063476D02*
X12562143Y-14958714D01*
X12552619Y-14939667D01*
X12533571Y-14930143D01*
X12505000Y-14930143D01*
X12485952Y-14939667D01*
X12476428Y-14949190D01*
X12685952Y-15063476D02*
X12666905Y-15053952D01*
X12657381Y-15044428D01*
X12647857Y-15025381D01*
X12647857Y-14968238D01*
X12657381Y-14949190D01*
X12666905Y-14939667D01*
X12685952Y-14930143D01*
X12714524Y-14930143D01*
X12733571Y-14939667D01*
X12743095Y-14949190D01*
X12752619Y-14968238D01*
X12752619Y-15025381D01*
X12743095Y-15044428D01*
X12733571Y-15053952D01*
X12714524Y-15063476D01*
X12685952Y-15063476D01*
X12866905Y-15063476D02*
X12847857Y-15053952D01*
X12838333Y-15034905D01*
X12838333Y-14863476D01*
X13019286Y-15053952D02*
X13000238Y-15063476D01*
X12962143Y-15063476D01*
X12943095Y-15053952D01*
X12933571Y-15034905D01*
X12933571Y-14958714D01*
X12943095Y-14939667D01*
X12962143Y-14930143D01*
X13000238Y-14930143D01*
X13019286Y-14939667D01*
X13028809Y-14958714D01*
X13028809Y-14977762D01*
X12933571Y-14996809D01*
X13105000Y-15053952D02*
X13124048Y-15063476D01*
X13162143Y-15063476D01*
X13181190Y-15053952D01*
X13190714Y-15034905D01*
X13190714Y-15025381D01*
X13181190Y-15006333D01*
X13162143Y-14996809D01*
X13133571Y-14996809D01*
X13114524Y-14987286D01*
X13105000Y-14968238D01*
X13105000Y-14958714D01*
X13114524Y-14939667D01*
X13133571Y-14930143D01*
X13162143Y-14930143D01*
X13181190Y-14939667D01*
X13257381Y-15139667D02*
X13266905Y-15130143D01*
X13285952Y-15101571D01*
X13295476Y-15082524D01*
X13305000Y-15053952D01*
X13314524Y-15006333D01*
X13314524Y-14968238D01*
X13305000Y-14920619D01*
X13295476Y-14892048D01*
X13285952Y-14873000D01*
X13266905Y-14844428D01*
X13257381Y-14834905D01*
D15*
X8278891Y-15275891D02*
X8278891Y-15198109D01*
X8201109Y-15198109D01*
X8201109Y-15275891D01*
X8278891Y-15275891D01*
D11*
X8657381Y-15327476D02*
X8543095Y-15327476D01*
X8600238Y-15327476D02*
X8600238Y-15127476D01*
X8581190Y-15156048D01*
X8562143Y-15175095D01*
X8543095Y-15184619D01*
X8743095Y-15308428D02*
X8752619Y-15317952D01*
X8743095Y-15327476D01*
X8733571Y-15317952D01*
X8743095Y-15308428D01*
X8743095Y-15327476D01*
X8943095Y-15327476D02*
X8828810Y-15327476D01*
X8885952Y-15327476D02*
X8885952Y-15127476D01*
X8866905Y-15156048D01*
X8847857Y-15175095D01*
X8828810Y-15184619D01*
X9066905Y-15127476D02*
X9085952Y-15127476D01*
X9105000Y-15137000D01*
X9114524Y-15146524D01*
X9124048Y-15165571D01*
X9133571Y-15203667D01*
X9133571Y-15251286D01*
X9124048Y-15289381D01*
X9114524Y-15308428D01*
X9105000Y-15317952D01*
X9085952Y-15327476D01*
X9066905Y-15327476D01*
X9047857Y-15317952D01*
X9038333Y-15308428D01*
X9028810Y-15289381D01*
X9019286Y-15251286D01*
X9019286Y-15203667D01*
X9028810Y-15165571D01*
X9038333Y-15146524D01*
X9047857Y-15137000D01*
X9066905Y-15127476D01*
X9257381Y-15127476D02*
X9276429Y-15127476D01*
X9295476Y-15137000D01*
X9305000Y-15146524D01*
X9314524Y-15165571D01*
X9324048Y-15203667D01*
X9324048Y-15251286D01*
X9314524Y-15289381D01*
X9305000Y-15308428D01*
X9295476Y-15317952D01*
X9276429Y-15327476D01*
X9257381Y-15327476D01*
X9238333Y-15317952D01*
X9228810Y-15308428D01*
X9219286Y-15289381D01*
X9209762Y-15251286D01*
X9209762Y-15203667D01*
X9219286Y-15165571D01*
X9228810Y-15146524D01*
X9238333Y-15137000D01*
X9257381Y-15127476D01*
X9409762Y-15327476D02*
X9409762Y-15194143D01*
X9409762Y-15213190D02*
X9419286Y-15203667D01*
X9438333Y-15194143D01*
X9466905Y-15194143D01*
X9485952Y-15203667D01*
X9495476Y-15222714D01*
X9495476Y-15327476D01*
X9495476Y-15222714D02*
X9505000Y-15203667D01*
X9524048Y-15194143D01*
X9552619Y-15194143D01*
X9571667Y-15203667D01*
X9581190Y-15222714D01*
X9581190Y-15327476D01*
X9676429Y-15327476D02*
X9676429Y-15194143D01*
X9676429Y-15213190D02*
X9685952Y-15203667D01*
X9705000Y-15194143D01*
X9733571Y-15194143D01*
X9752619Y-15203667D01*
X9762143Y-15222714D01*
X9762143Y-15327476D01*
X9762143Y-15222714D02*
X9771667Y-15203667D01*
X9790714Y-15194143D01*
X9819286Y-15194143D01*
X9838333Y-15203667D01*
X9847857Y-15222714D01*
X9847857Y-15327476D01*
X10238333Y-15117952D02*
X10066905Y-15375095D01*
X10495476Y-15127476D02*
X10514524Y-15127476D01*
X10533571Y-15137000D01*
X10543095Y-15146524D01*
X10552619Y-15165571D01*
X10562143Y-15203667D01*
X10562143Y-15251286D01*
X10552619Y-15289381D01*
X10543095Y-15308428D01*
X10533571Y-15317952D01*
X10514524Y-15327476D01*
X10495476Y-15327476D01*
X10476429Y-15317952D01*
X10466905Y-15308428D01*
X10457381Y-15289381D01*
X10447857Y-15251286D01*
X10447857Y-15203667D01*
X10457381Y-15165571D01*
X10466905Y-15146524D01*
X10476429Y-15137000D01*
X10495476Y-15127476D01*
X10647857Y-15308428D02*
X10657381Y-15317952D01*
X10647857Y-15327476D01*
X10638333Y-15317952D01*
X10647857Y-15308428D01*
X10647857Y-15327476D01*
X10781190Y-15127476D02*
X10800238Y-15127476D01*
X10819286Y-15137000D01*
X10828810Y-15146524D01*
X10838333Y-15165571D01*
X10847857Y-15203667D01*
X10847857Y-15251286D01*
X10838333Y-15289381D01*
X10828810Y-15308428D01*
X10819286Y-15317952D01*
X10800238Y-15327476D01*
X10781190Y-15327476D01*
X10762143Y-15317952D01*
X10752619Y-15308428D01*
X10743095Y-15289381D01*
X10733571Y-15251286D01*
X10733571Y-15203667D01*
X10743095Y-15165571D01*
X10752619Y-15146524D01*
X10762143Y-15137000D01*
X10781190Y-15127476D01*
X11019286Y-15194143D02*
X11019286Y-15327476D01*
X10971667Y-15117952D02*
X10924048Y-15260809D01*
X11047857Y-15260809D01*
X11105000Y-15127476D02*
X11228809Y-15127476D01*
X11162143Y-15203667D01*
X11190714Y-15203667D01*
X11209762Y-15213190D01*
X11219286Y-15222714D01*
X11228809Y-15241762D01*
X11228809Y-15289381D01*
X11219286Y-15308428D01*
X11209762Y-15317952D01*
X11190714Y-15327476D01*
X11133571Y-15327476D01*
X11114524Y-15317952D01*
X11105000Y-15308428D01*
X11295476Y-15127476D02*
X11419286Y-15127476D01*
X11352619Y-15203667D01*
X11381190Y-15203667D01*
X11400238Y-15213190D01*
X11409762Y-15222714D01*
X11419286Y-15241762D01*
X11419286Y-15289381D01*
X11409762Y-15308428D01*
X11400238Y-15317952D01*
X11381190Y-15327476D01*
X11324048Y-15327476D01*
X11305000Y-15317952D01*
X11295476Y-15308428D01*
X11495476Y-15127476D02*
X11495476Y-15165571D01*
X11571667Y-15127476D02*
X11571667Y-15165571D01*
X11866905Y-15403667D02*
X11857381Y-15394143D01*
X11838333Y-15365571D01*
X11828809Y-15346524D01*
X11819286Y-15317952D01*
X11809762Y-15270333D01*
X11809762Y-15232238D01*
X11819286Y-15184619D01*
X11828809Y-15156048D01*
X11838333Y-15137000D01*
X11857381Y-15108428D01*
X11866905Y-15098905D01*
X11924048Y-15127476D02*
X12057381Y-15127476D01*
X11971667Y-15327476D01*
X12285952Y-15327476D02*
X12285952Y-15127476D01*
X12371667Y-15327476D02*
X12371667Y-15222714D01*
X12362143Y-15203667D01*
X12343095Y-15194143D01*
X12314524Y-15194143D01*
X12295476Y-15203667D01*
X12285952Y-15213190D01*
X12495476Y-15327476D02*
X12476428Y-15317952D01*
X12466905Y-15308428D01*
X12457381Y-15289381D01*
X12457381Y-15232238D01*
X12466905Y-15213190D01*
X12476428Y-15203667D01*
X12495476Y-15194143D01*
X12524048Y-15194143D01*
X12543095Y-15203667D01*
X12552619Y-15213190D01*
X12562143Y-15232238D01*
X12562143Y-15289381D01*
X12552619Y-15308428D01*
X12543095Y-15317952D01*
X12524048Y-15327476D01*
X12495476Y-15327476D01*
X12676428Y-15327476D02*
X12657381Y-15317952D01*
X12647857Y-15298905D01*
X12647857Y-15127476D01*
X12828809Y-15317952D02*
X12809762Y-15327476D01*
X12771667Y-15327476D01*
X12752619Y-15317952D01*
X12743095Y-15298905D01*
X12743095Y-15222714D01*
X12752619Y-15203667D01*
X12771667Y-15194143D01*
X12809762Y-15194143D01*
X12828809Y-15203667D01*
X12838333Y-15222714D01*
X12838333Y-15241762D01*
X12743095Y-15260809D01*
X12914524Y-15317952D02*
X12933571Y-15327476D01*
X12971667Y-15327476D01*
X12990714Y-15317952D01*
X13000238Y-15298905D01*
X13000238Y-15289381D01*
X12990714Y-15270333D01*
X12971667Y-15260809D01*
X12943095Y-15260809D01*
X12924048Y-15251286D01*
X12914524Y-15232238D01*
X12914524Y-15222714D01*
X12924048Y-15203667D01*
X12943095Y-15194143D01*
X12971667Y-15194143D01*
X12990714Y-15203667D01*
X13066905Y-15403667D02*
X13076428Y-15394143D01*
X13095476Y-15365571D01*
X13105000Y-15346524D01*
X13114524Y-15317952D01*
X13124048Y-15270333D01*
X13124048Y-15232238D01*
X13114524Y-15184619D01*
X13105000Y-15156048D01*
X13095476Y-15137000D01*
X13076428Y-15108428D01*
X13066905Y-15098905D01*
D16*
X8229000Y-15567000D02*
X8295000Y-15501000D01*
X8229000Y-15435000D01*
X8163000Y-15501000D01*
X8229000Y-15567000D01*
D11*
X8657381Y-15591476D02*
X8543095Y-15591476D01*
X8600238Y-15591476D02*
X8600238Y-15391476D01*
X8581190Y-15420048D01*
X8562143Y-15439095D01*
X8543095Y-15448619D01*
X8743095Y-15572428D02*
X8752619Y-15581952D01*
X8743095Y-15591476D01*
X8733571Y-15581952D01*
X8743095Y-15572428D01*
X8743095Y-15591476D01*
X8819286Y-15391476D02*
X8943095Y-15391476D01*
X8876429Y-15467667D01*
X8905000Y-15467667D01*
X8924048Y-15477190D01*
X8933571Y-15486714D01*
X8943095Y-15505762D01*
X8943095Y-15553381D01*
X8933571Y-15572428D01*
X8924048Y-15581952D01*
X8905000Y-15591476D01*
X8847857Y-15591476D01*
X8828810Y-15581952D01*
X8819286Y-15572428D01*
X9019286Y-15410524D02*
X9028810Y-15401000D01*
X9047857Y-15391476D01*
X9095476Y-15391476D01*
X9114524Y-15401000D01*
X9124048Y-15410524D01*
X9133571Y-15429571D01*
X9133571Y-15448619D01*
X9124048Y-15477190D01*
X9009762Y-15591476D01*
X9133571Y-15591476D01*
X9257381Y-15391476D02*
X9276429Y-15391476D01*
X9295476Y-15401000D01*
X9305000Y-15410524D01*
X9314524Y-15429571D01*
X9324048Y-15467667D01*
X9324048Y-15515286D01*
X9314524Y-15553381D01*
X9305000Y-15572428D01*
X9295476Y-15581952D01*
X9276429Y-15591476D01*
X9257381Y-15591476D01*
X9238333Y-15581952D01*
X9228810Y-15572428D01*
X9219286Y-15553381D01*
X9209762Y-15515286D01*
X9209762Y-15467667D01*
X9219286Y-15429571D01*
X9228810Y-15410524D01*
X9238333Y-15401000D01*
X9257381Y-15391476D01*
X9409762Y-15591476D02*
X9409762Y-15458143D01*
X9409762Y-15477190D02*
X9419286Y-15467667D01*
X9438333Y-15458143D01*
X9466905Y-15458143D01*
X9485952Y-15467667D01*
X9495476Y-15486714D01*
X9495476Y-15591476D01*
X9495476Y-15486714D02*
X9505000Y-15467667D01*
X9524048Y-15458143D01*
X9552619Y-15458143D01*
X9571667Y-15467667D01*
X9581190Y-15486714D01*
X9581190Y-15591476D01*
X9676429Y-15591476D02*
X9676429Y-15458143D01*
X9676429Y-15477190D02*
X9685952Y-15467667D01*
X9705000Y-15458143D01*
X9733571Y-15458143D01*
X9752619Y-15467667D01*
X9762143Y-15486714D01*
X9762143Y-15591476D01*
X9762143Y-15486714D02*
X9771667Y-15467667D01*
X9790714Y-15458143D01*
X9819286Y-15458143D01*
X9838333Y-15467667D01*
X9847857Y-15486714D01*
X9847857Y-15591476D01*
X10238333Y-15381952D02*
X10066905Y-15639095D01*
X10495476Y-15391476D02*
X10514524Y-15391476D01*
X10533571Y-15401000D01*
X10543095Y-15410524D01*
X10552619Y-15429571D01*
X10562143Y-15467667D01*
X10562143Y-15515286D01*
X10552619Y-15553381D01*
X10543095Y-15572428D01*
X10533571Y-15581952D01*
X10514524Y-15591476D01*
X10495476Y-15591476D01*
X10476429Y-15581952D01*
X10466905Y-15572428D01*
X10457381Y-15553381D01*
X10447857Y-15515286D01*
X10447857Y-15467667D01*
X10457381Y-15429571D01*
X10466905Y-15410524D01*
X10476429Y-15401000D01*
X10495476Y-15391476D01*
X10647857Y-15572428D02*
X10657381Y-15581952D01*
X10647857Y-15591476D01*
X10638333Y-15581952D01*
X10647857Y-15572428D01*
X10647857Y-15591476D01*
X10781190Y-15391476D02*
X10800238Y-15391476D01*
X10819286Y-15401000D01*
X10828810Y-15410524D01*
X10838333Y-15429571D01*
X10847857Y-15467667D01*
X10847857Y-15515286D01*
X10838333Y-15553381D01*
X10828810Y-15572428D01*
X10819286Y-15581952D01*
X10800238Y-15591476D01*
X10781190Y-15591476D01*
X10762143Y-15581952D01*
X10752619Y-15572428D01*
X10743095Y-15553381D01*
X10733571Y-15515286D01*
X10733571Y-15467667D01*
X10743095Y-15429571D01*
X10752619Y-15410524D01*
X10762143Y-15401000D01*
X10781190Y-15391476D01*
X11028810Y-15391476D02*
X10933571Y-15391476D01*
X10924048Y-15486714D01*
X10933571Y-15477190D01*
X10952619Y-15467667D01*
X11000238Y-15467667D01*
X11019286Y-15477190D01*
X11028810Y-15486714D01*
X11038333Y-15505762D01*
X11038333Y-15553381D01*
X11028810Y-15572428D01*
X11019286Y-15581952D01*
X11000238Y-15591476D01*
X10952619Y-15591476D01*
X10933571Y-15581952D01*
X10924048Y-15572428D01*
X11114524Y-15410524D02*
X11124048Y-15401000D01*
X11143095Y-15391476D01*
X11190714Y-15391476D01*
X11209762Y-15401000D01*
X11219286Y-15410524D01*
X11228809Y-15429571D01*
X11228809Y-15448619D01*
X11219286Y-15477190D01*
X11105000Y-15591476D01*
X11228809Y-15591476D01*
X11352619Y-15391476D02*
X11371667Y-15391476D01*
X11390714Y-15401000D01*
X11400238Y-15410524D01*
X11409762Y-15429571D01*
X11419286Y-15467667D01*
X11419286Y-15515286D01*
X11409762Y-15553381D01*
X11400238Y-15572428D01*
X11390714Y-15581952D01*
X11371667Y-15591476D01*
X11352619Y-15591476D01*
X11333571Y-15581952D01*
X11324048Y-15572428D01*
X11314524Y-15553381D01*
X11305000Y-15515286D01*
X11305000Y-15467667D01*
X11314524Y-15429571D01*
X11324048Y-15410524D01*
X11333571Y-15401000D01*
X11352619Y-15391476D01*
X11495476Y-15391476D02*
X11495476Y-15429571D01*
X11571667Y-15391476D02*
X11571667Y-15429571D01*
X11866905Y-15667667D02*
X11857381Y-15658143D01*
X11838333Y-15629571D01*
X11828809Y-15610524D01*
X11819286Y-15581952D01*
X11809762Y-15534333D01*
X11809762Y-15496238D01*
X11819286Y-15448619D01*
X11828809Y-15420048D01*
X11838333Y-15401000D01*
X11857381Y-15372428D01*
X11866905Y-15362905D01*
X12047857Y-15591476D02*
X11933571Y-15591476D01*
X11990714Y-15591476D02*
X11990714Y-15391476D01*
X11971667Y-15420048D01*
X11952619Y-15439095D01*
X11933571Y-15448619D01*
X12171667Y-15391476D02*
X12190714Y-15391476D01*
X12209762Y-15401000D01*
X12219286Y-15410524D01*
X12228809Y-15429571D01*
X12238333Y-15467667D01*
X12238333Y-15515286D01*
X12228809Y-15553381D01*
X12219286Y-15572428D01*
X12209762Y-15581952D01*
X12190714Y-15591476D01*
X12171667Y-15591476D01*
X12152619Y-15581952D01*
X12143095Y-15572428D01*
X12133571Y-15553381D01*
X12124048Y-15515286D01*
X12124048Y-15467667D01*
X12133571Y-15429571D01*
X12143095Y-15410524D01*
X12152619Y-15401000D01*
X12171667Y-15391476D01*
X12476428Y-15591476D02*
X12476428Y-15391476D01*
X12562143Y-15591476D02*
X12562143Y-15486714D01*
X12552619Y-15467667D01*
X12533571Y-15458143D01*
X12505000Y-15458143D01*
X12485952Y-15467667D01*
X12476428Y-15477190D01*
X12685952Y-15591476D02*
X12666905Y-15581952D01*
X12657381Y-15572428D01*
X12647857Y-15553381D01*
X12647857Y-15496238D01*
X12657381Y-15477190D01*
X12666905Y-15467667D01*
X12685952Y-15458143D01*
X12714524Y-15458143D01*
X12733571Y-15467667D01*
X12743095Y-15477190D01*
X12752619Y-15496238D01*
X12752619Y-15553381D01*
X12743095Y-15572428D01*
X12733571Y-15581952D01*
X12714524Y-15591476D01*
X12685952Y-15591476D01*
X12866905Y-15591476D02*
X12847857Y-15581952D01*
X12838333Y-15562905D01*
X12838333Y-15391476D01*
X13019286Y-15581952D02*
X13000238Y-15591476D01*
X12962143Y-15591476D01*
X12943095Y-15581952D01*
X12933571Y-15562905D01*
X12933571Y-15486714D01*
X12943095Y-15467667D01*
X12962143Y-15458143D01*
X13000238Y-15458143D01*
X13019286Y-15467667D01*
X13028809Y-15486714D01*
X13028809Y-15505762D01*
X12933571Y-15524809D01*
X13105000Y-15581952D02*
X13124048Y-15591476D01*
X13162143Y-15591476D01*
X13181190Y-15581952D01*
X13190714Y-15562905D01*
X13190714Y-15553381D01*
X13181190Y-15534333D01*
X13162143Y-15524809D01*
X13133571Y-15524809D01*
X13114524Y-15515286D01*
X13105000Y-15496238D01*
X13105000Y-15486714D01*
X13114524Y-15467667D01*
X13133571Y-15458143D01*
X13162143Y-15458143D01*
X13181190Y-15467667D01*
X13257381Y-15667667D02*
X13266905Y-15658143D01*
X13285952Y-15629571D01*
X13295476Y-15610524D01*
X13305000Y-15581952D01*
X13314524Y-15534333D01*
X13314524Y-15496238D01*
X13305000Y-15448619D01*
X13295476Y-15420048D01*
X13285952Y-15401000D01*
X13266905Y-15372428D01*
X13257381Y-15362905D01*
M02*
